<svg width="250" height="140" viewBox="0 0 250 140" fill="none" xmlns="http://www.w3.org/2000/svg">
<path d="M51.1468 101.177C44.9069 104.402 40.7186 110.488 39.9334 114.706C37.0148 130.383 51.7652 130.492 54.1315 128.659C57.1135 126.349 53.4319 118.135 54.1315 114.706C54.9356 110.763 57.5946 108.188 62.1082 106.978C72.964 110.152 82.4519 111.146 90.572 109.96C102.752 108.182 113.48 97.1338 139.926 97.1338C155.053 96.4691 168.027 104.753 179.839 106.31C191.65 107.867 201.316 104.434 201.316 104.434" stroke="#CAE7F7" stroke-width="2.4" stroke-linecap="round"/>
<path d="M235.388 40.6409C247.815 48.1005 232.125 52.4698 231.55 52.4698C230.975 52.4698 237.967 53.7324 237.018 59.853C236.386 63.9334 230.721 66.0506 220.021 66.2047" stroke="#CAE7F7" stroke-width="2.4" stroke-linecap="round"/>
<path d="M235.388 40.2486C238.085 37.4703 239.433 34.6992 239.433 31.9353C239.433 27.7893 236.48 16.981 231.704 9.6172" stroke="#CAE7F7" stroke-width="2.4" stroke-linecap="round"/>
<path d="M220.021 66.2047C222.374 70.4681 227.499 78.6021 227.499 86.2982C227.499 92.7512 223.716 98.8427 221.157 103.369" stroke="#CAE7F7" stroke-width="2.32275" stroke-linecap="round"/>
<path d="M221.157 103.369C228.086 106.767 231.55 109.292 231.55 110.944C232.038 114.208 231.367 117.383 229.538 120.47C229.151 121.122 228.713 121.77 228.223 122.415C225.414 126.108 222.68 128.442 220.021 129.415C217.893 130.182 215.984 130.182 214.296 129.415C211.764 128.265 211.499 125.434 214.296 118.017C206.741 115.086 202.5 111.797 201.573 108.15C200.647 104.502 202.04 99.8586 205.751 94.219" stroke="#CAE7F7" stroke-width="2.4" stroke-linecap="round"/>
<path d="M46.5718 104.363C35.5222 102.383 29.0488 95.7754 27.1515 84.5416C10.7501 72.317 6.00106 54.8863 12.9044 32.2496C15.0275 20.4858 23.4459 21.017 29.3511 31.7728C34.2199 40.6409 46.388 46.0957 48.4433 47.4976C52.0426 49.9528 59.137 53.4228 59.9944 65.0828C66.9675 69.7377 75.8583 72.0651 86.6667 72.0651C102.879 72.0651 118.208 55.6761 144.654 55.6761C169.299 55.6761 176.097 66.2047 191.787 66.2047C207.477 66.2047 223.76 55.6761 231.55 10.0096" stroke="#CAE7F7" stroke-width="2.4" stroke-linecap="round"/>
<path d="M49.2294 62.0012C37.0324 67.3715 31.8127 81.4133 32.7272 84.5416C33.2407 86.2982 42.001 95.4009 48.4433 91.1952C55.2379 86.7594 59.0883 77.8124 59.9944 64.3541V65.0828" stroke="#CAE7F7" stroke-width="2.4" stroke-linecap="round"/>
<path d="M13.3363 30.9427C19.5651 31.3733 23.9937 30.1574 26.6221 27.2951" stroke="#CAE7F7" stroke-width="2.4"/>
<path d="M16.2827 55.6761C17.3766 59.4704 20.1234 60.8839 24.5233 59.9165" stroke="#CAE7F7" stroke-width="2.4" stroke-linecap="round"/>
<path d="M37.5177 54.8286C38.7025 54.3604 39.4142 53.3516 39.1075 52.5753C38.8007 51.7991 37.5916 51.5494 36.4068 52.0176C35.2221 52.4858 34.5103 53.4946 34.8171 54.2709C35.1239 55.0471 36.333 55.2968 37.5177 54.8286Z" fill="#CAE7F7"/>
<path d="M35.3725 99.9662C31.9676 103.69 28.3512 108.241 24.5233 113.618C22.3264 116.704 15.6963 116.906 15.6963 106.978C15.6963 99.9662 19.9792 97.8252 29.3511 92.3815" stroke="#CAE7F7" stroke-width="2.4"/>
<path d="M218.696 122.415C217.849 124.021 217.496 126.103 217.637 128.659" stroke="#CAE7F7" stroke-width="2.4" stroke-linecap="round"/>
<path d="M14.708 31.5061C13.2229 27.9872 17.2164 23.583 18.6699 24.2371C20.3075 22.5995 26.0352 24.2252 25.6693 28.658L14.708 31.5061Z" fill="#CAE7F7"/>
<path d="M86.0495 95.4291C85.8723 95.5325 85.582 95.6662 85.1787 95.8302C84.7928 95.9895 84.3998 96.1227 84 96.2299C83.6001 96.337 83.2343 96.3978 82.9027 96.4121C82.5932 96.4391 82.3131 96.4023 82.0625 96.3018C81.812 96.2012 81.5973 96.0258 81.4184 95.7755C81.2395 95.5253 81.0895 95.1742 80.9684 94.7221L79.8783 90.6536L74.8709 91.9953L76.4782 97.9937C76.3009 98.0972 76.0106 98.2308 75.6073 98.3948C75.2214 98.5541 74.8285 98.6874 74.4286 98.7945C74.0287 98.9017 73.663 98.9624 73.3314 98.9767C73.0218 99.0037 72.7418 98.967 72.4912 98.8664C72.2406 98.7658 72.0259 98.5904 71.847 98.3402C71.6682 98.0899 71.5182 97.7388 71.3971 97.2867L67.7073 83.5165C67.8893 83.4305 68.1819 83.3055 68.5852 83.1415C68.9838 82.9602 69.3744 82.8182 69.7569 82.7158C70.1568 82.6086 70.5139 82.5502 70.8281 82.5405C71.155 82.5089 71.4438 82.5433 71.6943 82.6439C71.9449 82.7444 72.1596 82.9198 72.3385 83.1701C72.5173 83.4203 72.6673 83.7715 72.7885 84.2235L73.9066 88.3963L78.9139 87.0546L77.2787 80.9519C77.4606 80.8659 77.7533 80.7409 78.1566 80.5769C78.5552 80.3955 78.9458 80.2536 79.3283 80.1511C79.7282 80.044 80.0852 79.9856 80.3994 79.9759C80.7264 79.9442 81.0151 79.9787 81.2657 80.0792C81.5163 80.1798 81.731 80.3552 81.9098 80.6054C82.0887 80.8557 82.2387 81.2068 82.3598 81.6589L86.0495 95.4291ZM94.0563 90.3766C94.3519 90.2974 94.6666 90.1852 95.0003 90.0398C95.3468 89.8725 95.593 89.7133 95.7389 89.5624L95.1799 87.476L93.344 88.1356C92.8665 88.3009 92.4946 88.5123 92.2282 88.7701C91.9618 89.0278 91.8752 89.3305 91.9684 89.6782C92.0616 90.026 92.2689 90.2779 92.5902 90.4341C92.9243 90.5682 93.413 90.549 94.0563 90.3766ZM91.1013 80.1831C92.0402 79.9315 92.9178 79.7989 93.7341 79.7852C94.5677 79.7668 95.3076 79.8853 95.9537 80.1408C96.6126 80.3742 97.1713 80.7556 97.63 81.2849C98.0839 81.7969 98.4204 82.4614 98.6394 83.2786L100.205 89.1205C100.326 89.5726 100.296 89.9813 100.114 90.3468C99.9451 90.6902 99.7148 91.0128 99.4229 91.3146C98.4745 92.2955 96.9745 93.0608 94.9228 93.6106C94.0013 93.8575 93.1435 93.9942 92.3493 94.0206C91.5725 94.0424 90.868 93.9517 90.2358 93.7484C89.621 93.5404 89.0936 93.2065 88.6536 92.7467C88.231 92.2823 87.9242 91.6936 87.7332 90.9808C87.4118 89.7811 87.5213 88.7641 88.0618 87.9298C88.6022 87.0955 89.5991 86.3997 91.0525 85.8426L94.3711 84.562L94.3222 84.3795C94.1871 83.8753 93.8656 83.5794 93.3576 83.4919C92.8624 83.3823 92.1975 83.4394 91.3629 83.663C90.7022 83.84 90.0776 84.0819 89.4889 84.3887C88.9003 84.6956 88.3818 85.0208 87.9335 85.3646C87.6655 85.2687 87.4114 85.0852 87.171 84.8142C86.926 84.5257 86.7569 84.2077 86.6638 83.8599C86.5426 83.4079 86.5515 83.0235 86.6902 82.7068C86.8417 82.368 87.1178 82.0425 87.5187 81.7301C87.9716 81.4037 88.5255 81.1062 89.1803 80.8376C89.8525 80.5643 90.4928 80.3462 91.1013 80.1831Z" fill="#CAE7F7"/>
<path d="M105.49 75.3562C106.543 75.1132 107.549 75.0288 108.508 75.1029C109.481 75.1554 110.356 75.3874 111.135 75.7988C111.913 76.2102 112.586 76.8031 113.152 77.5775C113.715 78.3343 114.132 79.3003 114.403 80.4754C114.663 81.5978 114.731 82.6165 114.61 83.5312C114.489 84.4459 114.206 85.2595 113.76 85.9719C113.311 86.6668 112.707 87.2496 111.947 87.7206C111.205 88.1875 110.334 88.5363 109.335 88.7671C108.581 88.9412 107.853 88.9892 107.151 88.911L108.159 93.2781C107.996 93.3712 107.728 93.4886 107.354 93.6303C106.984 93.7896 106.598 93.9157 106.194 94.0089C105.809 94.0979 105.452 94.1526 105.124 94.1729C104.814 94.1891 104.535 94.1426 104.288 94.0333C104.041 93.9241 103.833 93.7413 103.663 93.485C103.497 93.2462 103.363 92.9075 103.262 92.4691L100.346 79.8412C100.237 79.3677 100.245 78.9596 100.369 78.6169C100.51 78.2701 100.728 77.9335 101.022 77.607C101.485 77.1307 102.095 76.6942 102.854 76.2974C103.612 75.9007 104.491 75.587 105.49 75.3562ZM107.863 85.3937C109.67 84.9766 110.324 83.6894 109.826 81.5322C109.567 80.4097 109.146 79.6293 108.565 79.1908C108.001 78.7484 107.298 78.6243 106.456 78.8187C106.123 78.8956 105.835 79.0083 105.592 79.1567C105.345 79.2876 105.137 79.4279 104.969 79.5777L106.305 85.3655C106.54 85.4221 106.788 85.4572 107.05 85.4706C107.311 85.4841 107.583 85.4584 107.863 85.3937Z" fill="#CAE7F7"/>
<path d="M121.367 72.108C122.436 71.9577 123.446 71.9613 124.395 72.1187C125.359 72.2558 126.211 72.5632 126.951 73.041C127.691 73.5187 128.309 74.1679 128.806 74.9887C129.301 75.7917 129.632 76.7903 129.8 77.9846C129.96 79.1254 129.94 80.1461 129.74 81.0468C129.539 81.9475 129.186 82.7333 128.68 83.4042C128.172 84.0572 127.519 84.5852 126.722 84.9882C125.942 85.3886 125.044 85.6602 124.028 85.803C123.261 85.9107 122.532 85.8951 121.84 85.756L122.464 90.1944C122.293 90.2729 122.015 90.3665 121.631 90.4751C121.249 90.6015 120.853 90.6935 120.443 90.7511C120.05 90.8062 119.69 90.8296 119.362 90.8212C119.051 90.8103 118.778 90.7397 118.541 90.6093C118.305 90.479 118.113 90.2787 117.966 90.0086C117.822 89.7562 117.718 89.4072 117.655 88.9616L115.852 76.1277C115.784 75.6465 115.827 75.2405 115.981 74.91C116.152 74.5769 116.398 74.2605 116.72 73.9609C117.222 73.5267 117.868 73.1451 118.658 72.8159C119.448 72.4868 120.351 72.2508 121.367 72.108ZM122.856 82.3141C124.692 82.0561 125.456 80.8309 125.148 78.6384C124.987 77.4976 124.637 76.6835 124.095 76.1961C123.572 75.7061 122.883 75.5213 122.027 75.6415C121.689 75.6891 121.392 75.7763 121.137 75.903C120.88 76.0119 120.66 76.1336 120.479 76.2681L121.306 82.1503C121.535 82.2271 121.779 82.2837 122.039 82.3199C122.298 82.3562 122.571 82.3542 122.856 82.3141Z" fill="#CAE7F7"/>
<path d="M132.456 80.652C132.258 80.202 132.042 79.698 131.808 79.14C131.592 78.582 131.358 77.943 131.106 77.223C130.872 76.503 130.62 75.684 130.35 74.766C130.098 73.83 129.828 72.759 129.54 71.553C129.792 71.301 130.125 71.085 130.539 70.905C130.971 70.707 131.439 70.608 131.943 70.608C132.573 70.608 133.095 70.743 133.509 71.013C133.923 71.265 134.229 71.751 134.427 72.471L136.56 79.896H136.668C136.884 79.284 137.091 78.618 137.289 77.898C137.505 77.178 137.712 76.44 137.91 75.684C138.108 74.91 138.288 74.145 138.45 73.389C138.63 72.615 138.783 71.859 138.909 71.121C139.557 70.779 140.268 70.608 141.042 70.608C141.672 70.608 142.194 70.743 142.608 71.013C143.022 71.283 143.229 71.751 143.229 72.417C143.229 72.903 143.166 73.47 143.04 74.118C142.914 74.748 142.743 75.423 142.527 76.143C142.329 76.863 142.086 77.61 141.798 78.384C141.528 79.14 141.24 79.887 140.934 80.625C140.628 81.363 140.313 82.065 139.989 82.731C139.665 83.379 139.35 83.964 139.044 84.486C138.54 85.368 138.072 86.088 137.64 86.646C137.208 87.204 136.794 87.636 136.398 87.942C136.002 88.266 135.606 88.482 135.21 88.59C134.814 88.716 134.4 88.779 133.968 88.779C133.212 88.779 132.6 88.554 132.132 88.104C131.664 87.654 131.385 87.069 131.295 86.349C131.871 85.899 132.447 85.395 133.023 84.837C133.599 84.297 134.121 83.739 134.589 83.163C134.283 83.073 133.95 82.866 133.59 82.542C133.248 82.2 132.87 81.57 132.456 80.652Z" fill="#CAE7F7"/>
<path d="M148.737 73.3845C148.644 73.1692 148.57 72.8842 148.517 72.5295C148.464 72.1748 148.467 71.8108 148.526 71.4375C148.636 70.7441 148.866 70.2703 149.216 70.0159C149.584 69.7643 150.017 69.678 150.514 69.7568L162.142 71.5984C162.235 71.8137 162.308 72.0986 162.362 72.4533C162.415 72.808 162.412 73.172 162.353 73.5454C162.243 74.2387 162.004 74.7112 161.636 74.9627C161.286 75.2171 160.862 75.3048 160.364 75.226L157.404 74.7572L155.453 87.0776C155.249 87.1 154.929 87.104 154.494 87.0898C154.077 87.0783 153.664 87.0402 153.255 86.9755C152.846 86.9107 152.487 86.8174 152.178 86.6956C151.884 86.5944 151.643 86.4469 151.455 86.2531C151.267 86.0593 151.143 85.8118 151.081 85.5104C151.019 85.2091 151.025 84.8273 151.098 84.365L152.737 74.018L148.737 73.3845ZM167.183 86.0925C167.485 86.1403 167.818 86.1657 168.182 86.1687C168.567 86.1567 168.856 86.1115 169.051 86.033L169.389 83.8996L167.444 83.7555C166.94 83.7122 166.514 83.7541 166.166 83.8812C165.818 84.0083 165.616 84.2496 165.559 84.6052C165.503 84.9608 165.59 85.2752 165.82 85.5486C166.071 85.807 166.525 85.9883 167.183 86.0925ZM168.629 75.5783C169.589 75.7304 170.445 75.9661 171.196 76.2856C171.965 76.6078 172.593 77.0171 173.079 77.5133C173.586 77.9945 173.942 78.5702 174.145 79.2403C174.352 79.8926 174.389 80.6366 174.257 81.4722L173.311 87.4457C173.237 87.9079 173.043 88.2691 172.729 88.5291C172.435 88.7741 172.093 88.9751 171.704 89.1321C170.439 89.6425 168.757 89.7315 166.659 89.3992C165.717 89.25 164.878 89.0259 164.141 88.7271C163.423 88.431 162.816 88.0616 162.321 87.6187C161.844 87.1787 161.498 86.6592 161.283 86.0602C161.086 85.464 161.045 84.8014 161.161 84.0725C161.355 82.8458 161.869 81.9613 162.702 81.4189C163.535 80.8766 164.729 80.6465 166.283 80.7286L169.835 80.9086L169.865 80.7219C169.947 80.2063 169.773 79.8053 169.345 79.5187C168.937 79.2172 168.306 78.9989 167.453 78.8637C166.777 78.7567 166.108 78.7236 165.446 78.7645C164.783 78.8054 164.177 78.8916 163.628 79.0233C163.422 78.8267 163.265 78.5557 163.155 78.2104C163.049 77.8472 163.024 77.4879 163.08 77.1323C163.153 76.6701 163.318 76.3225 163.573 76.0896C163.849 75.8418 164.234 75.6567 164.727 75.5343C165.274 75.4204 165.901 75.3739 166.608 75.3949C167.333 75.4186 168.007 75.4797 168.629 75.5783Z" fill="#CAE7F7"/>
<path d="M200.928 90.553C200.832 91.9177 200.246 92.9503 199.169 93.6508C198.091 94.3514 196.556 94.6319 194.563 94.4926C193.808 94.4398 193.112 94.337 192.473 94.1841C191.834 94.0311 191.289 93.8306 190.837 93.5825C190.404 93.3177 190.065 93.0052 189.82 92.6452C189.592 92.2865 189.495 91.8737 189.528 91.4068C189.558 90.9759 189.673 90.623 189.872 90.3483C190.073 90.0556 190.306 89.8193 190.571 89.6393C191.072 89.9631 191.646 90.2649 192.294 90.5447C192.962 90.8079 193.735 90.9703 194.615 91.0318C195.172 91.0707 195.599 91.0194 195.898 90.8779C196.215 90.7377 196.382 90.5329 196.401 90.2635C196.419 90.0121 196.325 89.8071 196.119 89.6484C195.914 89.4896 195.563 89.3478 195.066 89.2229L194.27 89.0048C192.729 88.5903 191.595 88.0328 190.868 87.3324C190.16 86.6153 189.849 85.6462 189.935 84.4252C189.981 83.7608 190.167 83.1694 190.492 82.6508C190.817 82.1322 191.252 81.7115 191.798 81.3888C192.344 81.0661 192.983 80.8311 193.715 80.6838C194.465 80.5378 195.28 80.4955 196.16 80.557C196.824 80.6035 197.44 80.7007 198.007 80.8486C198.593 80.9798 199.095 81.1592 199.512 81.3869C199.929 81.6145 200.252 81.8988 200.481 82.2396C200.711 82.5624 200.811 82.9393 200.781 83.3702C200.752 83.7832 200.646 84.1367 200.463 84.4306C200.299 84.7079 200.094 84.9371 199.846 85.1183C199.709 85.0185 199.5 84.9136 199.219 84.8038C198.939 84.6759 198.631 84.5642 198.295 84.4685C197.96 84.3549 197.615 84.2586 197.26 84.1796C196.922 84.1019 196.61 84.0529 196.323 84.0329C195.73 83.9914 195.267 84.0312 194.934 84.1523C194.602 84.2554 194.426 84.4506 194.406 84.7379C194.392 84.9354 194.47 85.1033 194.641 85.2415C194.812 85.3798 195.145 85.5203 195.64 85.6632L196.462 85.9102C198.158 86.4257 199.341 87.0588 200.01 87.8093C200.699 88.5431 201.005 89.4577 200.928 90.553Z" fill="#CAE7F7"/>
<path d="M187.036 93.3327C186.835 93.3337 186.534 93.3265 186.135 93.3109C185.75 93.3162 185.363 93.2844 184.973 93.2156C184.583 93.1469 184.233 93.0578 183.923 92.9483C183.631 92.842 183.393 92.6903 183.209 92.4933C183.024 92.2962 182.893 92.0538 182.816 91.7661C182.76 91.4637 182.77 91.0909 182.849 90.6477L185.568 75.2257C185.769 75.2246 186.061 75.2303 186.442 75.2427C186.845 75.2406 187.241 75.2739 187.631 75.3427C188.021 75.4114 188.362 75.499 188.654 75.6053C188.964 75.7147 189.211 75.868 189.395 76.065C189.58 76.2621 189.7 76.5118 189.757 76.8142C189.834 77.1019 189.833 77.4674 189.755 77.9106L187.036 93.3327Z" fill="#CAE7F7"/>
<path d="M177.685 74.2974C177.792 73.6219 178.104 73.0882 178.622 72.6963C179.158 72.3073 179.799 72.1719 180.545 72.2902C181.292 72.4084 181.851 72.7339 182.222 73.2665C182.611 73.802 182.752 74.4075 182.645 75.0831C182.538 75.7586 182.217 76.2909 181.682 76.68C181.164 77.0718 180.532 77.2086 179.785 77.0903C179.038 76.9721 178.471 76.6452 178.082 76.1098C177.71 75.5771 177.578 74.973 177.685 74.2974ZM179.813 91.5832C179.612 91.5878 179.312 91.5857 178.912 91.5771C178.528 91.5891 178.14 91.5641 177.749 91.5022C177.357 91.4402 177.006 91.3572 176.694 91.2532C176.401 91.152 176.16 91.0045 175.972 90.8107C175.784 90.6169 175.649 90.3768 175.566 90.0905C175.505 89.7891 175.509 89.4162 175.58 88.9717L177.299 78.118C177.5 78.1134 177.791 78.1141 178.173 78.1199C178.576 78.1107 178.972 78.1371 179.363 78.199C179.755 78.261 180.097 78.3425 180.391 78.4438C180.702 78.5478 180.952 78.6967 181.14 78.8905C181.328 79.0843 181.453 79.3318 181.515 79.6332C181.597 79.9196 181.603 80.285 181.532 80.7295L179.813 91.5832Z" fill="#CAE7F7"/>
</svg>
