<svg width="250" height="140" viewBox="0 0 250 140" fill="none" xmlns="http://www.w3.org/2000/svg">
<path d="M51.3098 101.167C45.0699 104.392 40.8816 110.479 40.0964 114.696C37.1778 130.374 51.9282 130.483 54.2944 128.65C57.2764 126.34 53.5949 118.125 54.2944 114.696C55.0986 110.754 57.7575 108.178 62.2712 106.969C73.127 110.142 82.6149 111.136 90.7349 109.951C102.915 108.173 113.643 97.1242 140.089 97.1242C155.216 96.4595 168.19 104.744 180.002 106.3C191.813 107.857 201.479 104.425 201.479 104.425" stroke="#49261D" stroke-width="2.4" stroke-linecap="round"/>
<path d="M235.551 40.6314C247.978 48.0909 232.288 52.4602 231.713 52.4602C231.138 52.4602 238.13 53.7228 237.181 59.8434C236.549 63.9238 230.884 66.041 220.184 66.1951" stroke="#49261D" stroke-width="2.4" stroke-linecap="round"/>
<path d="M235.551 40.6314C238.248 37.8531 239.596 35.082 239.596 32.3181C239.596 28.1721 236.643 17.3638 231.867 10" stroke="#49261D" stroke-width="2.4" stroke-linecap="round"/>
<path d="M220.184 66.1951C222.537 70.4585 227.662 78.5925 227.662 86.2886C227.662 92.7416 223.879 98.8331 221.32 103.359" stroke="#49261D" stroke-width="2.32275" stroke-linecap="round"/>
<path d="M221.32 103.359C228.249 106.758 231.713 109.283 231.713 110.934C232.201 114.198 231.53 117.374 229.701 120.461C229.314 121.113 228.876 121.761 228.386 122.405C225.577 126.099 222.843 128.432 220.184 129.406C218.056 130.173 216.147 130.173 214.459 129.406C211.927 128.256 211.662 125.424 214.459 118.008C206.904 115.077 202.663 111.788 201.736 108.14C200.81 104.493 202.202 99.849 205.914 94.2094" stroke="#49261D" stroke-width="2.4" stroke-linecap="round"/>
<path d="M46.7348 104.353C35.6852 102.373 29.2118 95.7658 27.3145 84.532C10.9131 72.3074 6.16402 54.8768 13.0674 32.24C15.1905 20.4762 23.6089 21.0074 29.514 31.7632C34.3829 40.6314 46.551 46.0861 48.6062 47.4881C52.2055 49.9432 59.3 53.4133 60.1573 65.0733C67.1305 69.7281 76.0213 72.0555 86.8297 72.0555C103.042 72.0555 118.371 55.6665 144.817 55.6665C169.462 55.6665 176.26 66.1951 191.95 66.1951C207.64 66.1951 223.923 55.6665 231.713 10" stroke="#49261D" stroke-width="2.4" stroke-linecap="round"/>
<path d="M49.3923 61.9917C37.1954 67.362 31.9757 81.4037 32.8902 84.532C33.4037 86.2886 42.1639 95.3913 48.6062 91.1856C55.4008 86.7499 59.2512 77.8028 60.1574 64.3446V65.0733" stroke="#49261D" stroke-width="2.4" stroke-linecap="round"/>
<path d="M13.4993 30.9331C19.7281 31.3637 24.1567 30.1478 26.7851 27.2855" stroke="#49261D" stroke-width="2.4"/>
<path d="M16.4456 55.6665C17.5395 59.4608 20.2864 60.8743 24.6863 59.9069" stroke="#49261D" stroke-width="2.4" stroke-linecap="round"/>
<path d="M37.6807 54.819C38.8654 54.3508 39.5772 53.342 39.2704 52.5658C38.9636 51.7895 37.7545 51.5398 36.5698 52.008C35.385 52.4762 34.6733 53.485 34.9801 54.2613C35.2868 55.0375 36.4959 55.2872 37.6807 54.819Z" fill="#49261D"/>
<path d="M35.5355 99.9567C32.1306 103.68 28.5142 108.231 24.6863 113.608C22.4893 116.695 15.8593 116.897 15.8593 106.969C15.8593 99.9567 20.1422 97.8156 29.514 92.3719" stroke="#49261D" stroke-width="2.4"/>
<path d="M218.859 122.405C218.012 124.012 217.659 126.093 217.8 128.65" stroke="#49261D" stroke-width="2.4" stroke-linecap="round"/>
<path d="M14.871 31.4965C13.3858 27.9776 17.3793 23.5734 18.8329 24.2275C20.4705 22.5899 26.1981 24.2156 25.8322 28.6484L14.871 31.4965Z" fill="#49261D"/>
<path d="M83.0495 96.4291C82.8723 96.5325 82.582 96.6662 82.1787 96.8302C81.7928 96.9895 81.3998 97.1227 81 97.2299C80.6001 97.337 80.2343 97.3978 79.9027 97.4121C79.5932 97.4391 79.3131 97.4023 79.0625 97.3018C78.812 97.2012 78.5973 97.0258 78.4184 96.7755C78.2395 96.5253 78.0895 96.1742 77.9684 95.7221L76.8783 91.6536L71.8709 92.9953L73.4782 98.9937C73.3009 99.0972 73.0106 99.2308 72.6073 99.3948C72.2214 99.5541 71.8285 99.6874 71.4286 99.7945C71.0287 99.9017 70.663 99.9624 70.3314 99.9767C70.0218 100.004 69.7418 99.967 69.4912 99.8664C69.2406 99.7658 69.0259 99.5904 68.847 99.3402C68.6682 99.0899 68.5182 98.7388 68.3971 98.2867L64.7073 84.5165C64.8893 84.4305 65.1819 84.3055 65.5852 84.1415C65.9838 83.9602 66.3744 83.8182 66.7569 83.7158C67.1568 83.6086 67.5139 83.5502 67.8281 83.5405C68.155 83.5089 68.4438 83.5433 68.6943 83.6439C68.9449 83.7444 69.1596 83.9198 69.3385 84.1701C69.5173 84.4203 69.6673 84.7715 69.7885 85.2235L70.9066 89.3963L75.9139 88.0546L74.2787 81.9519C74.4606 81.8659 74.7533 81.7409 75.1566 81.5769C75.5552 81.3955 75.9458 81.2536 76.3283 81.1511C76.7282 81.044 77.0852 80.9856 77.3994 80.9759C77.7264 80.9442 78.0151 80.9787 78.2657 81.0792C78.5163 81.1798 78.731 81.3552 78.9098 81.6054C79.0887 81.8557 79.2387 82.2068 79.3598 82.6589L83.0495 96.4291ZM91.0563 91.3766C91.3519 91.2974 91.6666 91.1852 92.0003 91.0398C92.3468 90.8725 92.593 90.7133 92.7389 90.5624L92.1799 88.476L90.344 89.1356C89.8665 89.3009 89.4946 89.5123 89.2282 89.7701C88.9618 90.0278 88.8752 90.3305 88.9684 90.6782C89.0616 91.026 89.2689 91.2779 89.5902 91.4341C89.9243 91.5682 90.413 91.549 91.0563 91.3766ZM88.1013 81.1831C89.0402 80.9315 89.9178 80.7989 90.7341 80.7852C91.5677 80.7668 92.3076 80.8853 92.9537 81.1408C93.6126 81.3742 94.1713 81.7556 94.63 82.2849C95.0839 82.7969 95.4204 83.4614 95.6394 84.2786L97.2047 90.1205C97.3258 90.5726 97.2956 90.9813 97.114 91.3468C96.9451 91.6902 96.7148 92.0128 96.4229 92.3146C95.4745 93.2955 93.9745 94.0608 91.9228 94.6106C91.0013 94.8575 90.1435 94.9942 89.3493 95.0206C88.5725 95.0424 87.868 94.9517 87.2358 94.7484C86.621 94.5404 86.0936 94.2065 85.6536 93.7467C85.231 93.2823 84.9242 92.6936 84.7332 91.9808C84.4118 90.7811 84.5213 89.7641 85.0618 88.9298C85.6022 88.0955 86.5991 87.3997 88.0525 86.8426L91.3711 85.562L91.3222 85.3795C91.1871 84.8753 90.8656 84.5794 90.3576 84.4919C89.8624 84.3823 89.1975 84.4394 88.3629 84.663C87.7022 84.84 87.0776 85.0819 86.4889 85.3887C85.9003 85.6956 85.3818 86.0208 84.9335 86.3646C84.6655 86.2687 84.4114 86.0852 84.171 85.8142C83.926 85.5257 83.7569 85.2077 83.6638 84.8599C83.5426 84.4079 83.5515 84.0235 83.6902 83.7068C83.8417 83.368 84.1178 83.0425 84.5187 82.7301C84.9716 82.4037 85.5255 82.1062 86.1803 81.8376C86.8525 81.5643 87.4928 81.3462 88.1013 81.1831Z" fill="#49261D"/>
<path d="M102.49 76.3562C103.543 76.1132 104.549 76.0288 105.508 76.1029C106.481 76.1554 107.356 76.3874 108.135 76.7988C108.913 77.2102 109.586 77.8031 110.152 78.5775C110.715 79.3343 111.132 80.3003 111.403 81.4754C111.663 82.5978 111.731 83.6165 111.61 84.5312C111.489 85.4459 111.206 86.2595 110.76 86.9719C110.311 87.6668 109.707 88.2496 108.947 88.7206C108.205 89.1875 107.334 89.5363 106.335 89.7671C105.581 89.9412 104.853 89.9892 104.151 89.911L105.159 94.2781C104.996 94.3712 104.728 94.4886 104.354 94.6303C103.984 94.7896 103.598 94.9157 103.194 95.0089C102.809 95.0979 102.452 95.1526 102.124 95.1729C101.814 95.1891 101.535 95.1426 101.288 95.0333C101.041 94.9241 100.833 94.7413 100.663 94.485C100.497 94.2462 100.363 93.9075 100.262 93.4691L97.3465 80.8412C97.2372 80.3677 97.2446 79.9596 97.3686 79.6169C97.5103 79.2701 97.7281 78.9335 98.0222 78.607C98.4849 78.1307 99.0954 77.6942 99.8536 77.2974C100.612 76.9007 101.491 76.587 102.49 76.3562ZM104.863 86.3937C106.67 85.9766 107.324 84.6894 106.826 82.5322C106.567 81.4097 106.146 80.6293 105.565 80.1908C105.001 79.7484 104.298 79.6243 103.456 79.8187C103.123 79.8956 102.835 80.0083 102.592 80.1567C102.345 80.2876 102.137 80.4279 101.969 80.5777L103.305 86.3655C103.54 86.4221 103.788 86.4572 104.05 86.4706C104.311 86.4841 104.583 86.4584 104.863 86.3937Z" fill="#49261D"/>
<path d="M118.367 73.108C119.436 72.9577 120.446 72.9613 121.395 73.1187C122.359 73.2558 123.211 73.5632 123.951 74.041C124.691 74.5187 125.309 75.1679 125.806 75.9887C126.301 76.7917 126.632 77.7903 126.8 78.9846C126.96 80.1254 126.94 81.1461 126.74 82.0468C126.539 82.9475 126.186 83.7333 125.68 84.4042C125.172 85.0572 124.519 85.5852 123.722 85.9882C122.942 86.3886 122.044 86.6602 121.028 86.803C120.261 86.9107 119.532 86.8951 118.84 86.756L119.464 91.1944C119.293 91.2729 119.015 91.3665 118.631 91.4751C118.249 91.6015 117.853 91.6935 117.443 91.7511C117.05 91.8062 116.69 91.8296 116.362 91.8212C116.051 91.8103 115.778 91.7397 115.541 91.6093C115.305 91.479 115.113 91.2787 114.966 91.0086C114.822 90.7562 114.718 90.4072 114.655 89.9616L112.852 77.1277C112.784 76.6465 112.827 76.2405 112.981 75.91C113.152 75.5769 113.398 75.2605 113.72 74.9609C114.222 74.5267 114.868 74.1451 115.658 73.8159C116.448 73.4868 117.351 73.2508 118.367 73.108ZM119.856 83.3141C121.692 83.0561 122.456 81.8309 122.148 79.6384C121.987 78.4976 121.637 77.6835 121.095 77.1961C120.572 76.7061 119.883 76.5213 119.027 76.6415C118.689 76.6891 118.392 76.7763 118.137 76.903C117.88 77.0119 117.66 77.1336 117.479 77.2681L118.306 83.1503C118.535 83.2271 118.779 83.2837 119.039 83.3199C119.298 83.3562 119.571 83.3542 119.856 83.3141Z" fill="#49261D"/>
<path d="M129.456 81.652C129.258 81.202 129.042 80.698 128.808 80.14C128.592 79.582 128.358 78.943 128.106 78.223C127.872 77.503 127.62 76.684 127.35 75.766C127.098 74.83 126.828 73.759 126.54 72.553C126.792 72.301 127.125 72.085 127.539 71.905C127.971 71.707 128.439 71.608 128.943 71.608C129.573 71.608 130.095 71.743 130.509 72.013C130.923 72.265 131.229 72.751 131.427 73.471L133.56 80.896H133.668C133.884 80.284 134.091 79.618 134.289 78.898C134.505 78.178 134.712 77.44 134.91 76.684C135.108 75.91 135.288 75.145 135.45 74.389C135.63 73.615 135.783 72.859 135.909 72.121C136.557 71.779 137.268 71.608 138.042 71.608C138.672 71.608 139.194 71.743 139.608 72.013C140.022 72.283 140.229 72.751 140.229 73.417C140.229 73.903 140.166 74.47 140.04 75.118C139.914 75.748 139.743 76.423 139.527 77.143C139.329 77.863 139.086 78.61 138.798 79.384C138.528 80.14 138.24 80.887 137.934 81.625C137.628 82.363 137.313 83.065 136.989 83.731C136.665 84.379 136.35 84.964 136.044 85.486C135.54 86.368 135.072 87.088 134.64 87.646C134.208 88.204 133.794 88.636 133.398 88.942C133.002 89.266 132.606 89.482 132.21 89.59C131.814 89.716 131.4 89.779 130.968 89.779C130.212 89.779 129.6 89.554 129.132 89.104C128.664 88.654 128.385 88.069 128.295 87.349C128.871 86.899 129.447 86.395 130.023 85.837C130.599 85.297 131.121 84.739 131.589 84.163C131.283 84.073 130.95 83.866 130.59 83.542C130.248 83.2 129.87 82.57 129.456 81.652Z" fill="#49261D"/>
<path d="M145.737 74.3845C145.644 74.1692 145.57 73.8842 145.517 73.5295C145.464 73.1748 145.467 72.8108 145.526 72.4375C145.636 71.7441 145.866 71.2703 146.216 71.0159C146.584 70.7643 147.017 70.678 147.514 70.7568L159.142 72.5984C159.235 72.8137 159.308 73.0986 159.362 73.4533C159.415 73.808 159.412 74.172 159.353 74.5454C159.243 75.2387 159.004 75.7112 158.636 75.9627C158.286 76.2171 157.862 76.3048 157.364 76.226L154.404 75.7572L152.453 88.0776C152.249 88.1 151.929 88.104 151.494 88.0898C151.077 88.0783 150.664 88.0402 150.255 87.9755C149.846 87.9107 149.487 87.8174 149.178 87.6956C148.884 87.5944 148.643 87.4469 148.455 87.2531C148.267 87.0593 148.143 86.8118 148.081 86.5104C148.019 86.2091 148.025 85.8273 148.098 85.365L149.737 75.018L145.737 74.3845ZM164.183 87.0925C164.485 87.1403 164.818 87.1657 165.182 87.1687C165.567 87.1567 165.856 87.1115 166.051 87.033L166.389 84.8996L164.444 84.7555C163.94 84.7122 163.514 84.7541 163.166 84.8812C162.818 85.0083 162.616 85.2496 162.559 85.6052C162.503 85.9608 162.59 86.2752 162.82 86.5486C163.071 86.807 163.525 86.9883 164.183 87.0925ZM165.629 76.5783C166.589 76.7304 167.445 76.9661 168.196 77.2856C168.965 77.6078 169.593 78.0171 170.079 78.5133C170.586 78.9945 170.942 79.5702 171.145 80.2403C171.352 80.8926 171.389 81.6366 171.257 82.4722L170.311 88.4457C170.237 88.9079 170.043 89.2691 169.729 89.5291C169.435 89.7741 169.093 89.9751 168.704 90.1321C167.439 90.6425 165.757 90.7315 163.659 90.3992C162.717 90.25 161.878 90.0259 161.141 89.7271C160.423 89.431 159.816 89.0616 159.321 88.6187C158.844 88.1787 158.498 87.6592 158.283 87.0602C158.086 86.464 158.045 85.8014 158.161 85.0725C158.355 83.8458 158.869 82.9613 159.702 82.4189C160.535 81.8766 161.729 81.6465 163.283 81.7286L166.835 81.9086L166.865 81.7219C166.947 81.2063 166.773 80.8053 166.345 80.5187C165.937 80.2172 165.306 79.9989 164.453 79.8637C163.777 79.7567 163.108 79.7236 162.446 79.7645C161.783 79.8054 161.177 79.8916 160.628 80.0233C160.422 79.8267 160.265 79.5557 160.155 79.2104C160.049 78.8472 160.024 78.4879 160.08 78.1323C160.153 77.6701 160.318 77.3225 160.573 77.0896C160.849 76.8418 161.234 76.6567 161.727 76.5343C162.274 76.4204 162.901 76.3739 163.608 76.3949C164.333 76.4186 165.007 76.4797 165.629 76.5783Z" fill="#49261D"/>
<path d="M197.928 91.553C197.832 92.9177 197.246 93.9503 196.169 94.6508C195.091 95.3514 193.556 95.6319 191.563 95.4926C190.808 95.4398 190.112 95.337 189.473 95.1841C188.834 95.0311 188.289 94.8306 187.837 94.5825C187.404 94.3177 187.065 94.0052 186.82 93.6452C186.592 93.2865 186.495 92.8737 186.528 92.4068C186.558 91.9759 186.673 91.623 186.872 91.3483C187.073 91.0556 187.306 90.8193 187.571 90.6393C188.072 90.9631 188.646 91.2649 189.294 91.5447C189.962 91.8079 190.735 91.9703 191.615 92.0318C192.172 92.0707 192.599 92.0194 192.898 91.8779C193.215 91.7377 193.382 91.5329 193.401 91.2635C193.419 91.0121 193.325 90.8071 193.119 90.6484C192.914 90.4896 192.563 90.3478 192.066 90.2229L191.27 90.0048C189.729 89.5903 188.595 89.0328 187.868 88.3324C187.16 87.6153 186.849 86.6462 186.935 85.4252C186.981 84.7608 187.167 84.1694 187.492 83.6508C187.817 83.1322 188.252 82.7115 188.798 82.3888C189.344 82.0661 189.983 81.8311 190.715 81.6838C191.465 81.5378 192.28 81.4955 193.16 81.557C193.824 81.6035 194.44 81.7007 195.007 81.8486C195.593 81.9798 196.095 82.1592 196.512 82.3869C196.929 82.6145 197.252 82.8988 197.481 83.2396C197.711 83.5624 197.811 83.9393 197.781 84.3702C197.752 84.7832 197.646 85.1367 197.463 85.4306C197.299 85.7079 197.094 85.9371 196.846 86.1183C196.709 86.0185 196.5 85.9136 196.219 85.8038C195.939 85.6759 195.631 85.5642 195.295 85.4685C194.96 85.3549 194.615 85.2586 194.26 85.1796C193.922 85.1019 193.61 85.0529 193.323 85.0329C192.73 84.9914 192.267 85.0312 191.934 85.1523C191.602 85.2554 191.426 85.4506 191.406 85.7379C191.392 85.9354 191.47 86.1033 191.641 86.2415C191.812 86.3798 192.145 86.5203 192.64 86.6632L193.462 86.9102C195.158 87.4257 196.341 88.0588 197.01 88.8093C197.699 89.5431 198.005 90.4577 197.928 91.553Z" fill="#49261D"/>
<path d="M184.036 94.3327C183.835 94.3337 183.534 94.3265 183.135 94.3109C182.75 94.3162 182.363 94.2844 181.973 94.2156C181.583 94.1469 181.233 94.0578 180.923 93.9483C180.631 93.842 180.393 93.6903 180.209 93.4933C180.024 93.2962 179.893 93.0538 179.816 92.7661C179.76 92.4637 179.77 92.0909 179.849 91.6477L182.568 76.2257C182.769 76.2246 183.061 76.2303 183.442 76.2427C183.845 76.2406 184.241 76.2739 184.631 76.3427C185.021 76.4114 185.362 76.499 185.654 76.6053C185.964 76.7147 186.211 76.868 186.395 77.065C186.58 77.2621 186.7 77.5118 186.757 77.8142C186.834 78.1019 186.833 78.4674 186.755 78.9106L184.036 94.3327Z" fill="#49261D"/>
<path d="M174.685 75.2974C174.792 74.6219 175.104 74.0882 175.622 73.6963C176.158 73.3073 176.799 73.1719 177.545 73.2902C178.292 73.4084 178.851 73.7339 179.222 74.2665C179.611 74.802 179.752 75.4075 179.645 76.0831C179.538 76.7586 179.217 77.2909 178.682 77.68C178.164 78.0718 177.532 78.2086 176.785 78.0903C176.038 77.9721 175.471 77.6452 175.082 77.1098C174.71 76.5771 174.578 75.973 174.685 75.2974ZM176.813 92.5832C176.612 92.5878 176.312 92.5857 175.912 92.5771C175.528 92.5891 175.14 92.5641 174.749 92.5022C174.357 92.4402 174.006 92.3572 173.694 92.2532C173.401 92.152 173.16 92.0045 172.972 91.8107C172.784 91.6169 172.649 91.3768 172.566 91.0905C172.505 90.7891 172.509 90.4162 172.58 89.9717L174.299 79.118C174.5 79.1134 174.791 79.1141 175.173 79.1199C175.576 79.1107 175.972 79.1371 176.363 79.199C176.755 79.261 177.097 79.3425 177.391 79.4438C177.702 79.5478 177.952 79.6967 178.14 79.8905C178.328 80.0843 178.453 80.3318 178.515 80.6332C178.597 80.9196 178.603 81.285 178.532 81.7295L176.813 92.5832Z" fill="#49261D"/>
</svg>
