<svg width="250" height="140" viewBox="0 0 250 140" fill="none" xmlns="http://www.w3.org/2000/svg">
<path d="M51.1468 101.177C44.9069 104.402 40.7186 110.488 39.9334 114.706C37.0148 130.383 51.7652 130.492 54.1315 128.659C57.1135 126.349 53.4319 118.135 54.1315 114.706C54.9356 110.763 57.5946 108.188 62.1082 106.978C72.964 110.152 82.4519 111.146 90.572 109.96C102.752 108.182 113.48 97.1337 139.926 97.1337C155.053 96.469 168.027 104.753 179.839 106.31C191.65 107.867 201.316 104.434 201.316 104.434" stroke="#FFEDE3" stroke-width="2.4" stroke-linecap="round"/>
<path d="M235.388 40.6409C247.815 48.1005 232.125 52.4697 231.55 52.4697C230.975 52.4697 237.967 53.7324 237.018 59.853C236.386 63.9334 230.721 66.0506 220.021 66.2047" stroke="#FFEDE3" stroke-width="2.4" stroke-linecap="round"/>
<path d="M235.388 40.6409C238.085 37.8627 239.433 35.0916 239.433 32.3276C239.433 28.1817 236.48 17.3733 231.704 10.0096" stroke="#FFEDE3" stroke-width="2.4" stroke-linecap="round"/>
<path d="M220.021 66.2047C222.374 70.4681 227.499 78.602 227.499 86.2981C227.499 92.7512 223.716 98.8427 221.157 103.368" stroke="#FFEDE3" stroke-width="2.32275" stroke-linecap="round"/>
<path d="M221.157 103.368C228.086 106.767 231.55 109.292 231.55 110.944C232.038 114.208 231.367 117.383 229.538 120.47C229.151 121.122 228.713 121.77 228.223 122.415C225.414 126.108 222.68 128.442 220.021 129.415C217.893 130.182 215.984 130.182 214.296 129.415C211.764 128.265 211.499 125.434 214.296 118.017C206.741 115.086 202.5 111.797 201.573 108.15C200.647 104.502 202.04 99.8586 205.751 94.219" stroke="#FFEDE3" stroke-width="2.4" stroke-linecap="round"/>
<path d="M46.5718 104.363C35.5222 102.383 29.0488 95.7754 27.1515 84.5416C10.7501 72.317 6.00105 54.8863 12.9044 32.2496C15.0275 20.4858 23.4459 21.017 29.3511 31.7728C34.2199 40.6409 46.388 46.0957 48.4433 47.4976C52.0426 49.9528 59.137 53.4228 59.9944 65.0828C66.9675 69.7377 75.8583 72.0651 86.6667 72.0651C102.879 72.0651 118.208 55.6761 144.654 55.6761C169.299 55.6761 176.097 66.2047 191.787 66.2047C207.477 66.2047 223.76 55.6761 231.55 10.0096" stroke="#FFEDE3" stroke-width="2.4" stroke-linecap="round"/>
<path d="M49.2294 62.0012C37.0324 67.3715 31.8127 81.4133 32.7272 84.5416C33.2407 86.2981 42.001 95.4009 48.4432 91.1952C55.2379 86.7594 59.0882 77.8124 59.9944 64.3541V65.0828" stroke="#FFEDE3" stroke-width="2.4" stroke-linecap="round"/>
<path d="M13.3363 30.9427C19.5651 31.3732 23.9937 30.1574 26.6221 27.2951" stroke="#FFEDE3" stroke-width="2.4"/>
<path d="M16.2826 55.6761C17.3765 59.4704 20.1234 60.8839 24.5233 59.9165" stroke="#FFEDE3" stroke-width="2.4" stroke-linecap="round"/>
<path d="M37.5177 54.8286C38.7025 54.3604 39.4142 53.3516 39.1075 52.5753C38.8007 51.7991 37.5916 51.5493 36.4068 52.0175C35.2221 52.4857 34.5103 53.4946 34.8171 54.2708C35.1239 55.0471 36.333 55.2968 37.5177 54.8286Z" fill="#FFEDE3"/>
<path d="M35.3725 99.9662C31.9676 103.69 28.3512 108.241 24.5233 113.618C22.3263 116.704 15.6963 116.906 15.6963 106.978C15.6963 99.9662 19.9792 97.8252 29.3511 92.3815" stroke="#FFEDE3" stroke-width="2.4"/>
<path d="M218.696 122.415C217.849 124.021 217.496 126.103 217.637 128.659" stroke="#FFEDE3" stroke-width="2.4" stroke-linecap="round"/>
<path d="M14.708 31.5064C13.2228 27.9875 17.2163 23.5833 18.6699 24.2374C18.6699 24.2374 24.8305 25.4302 25.6692 28.6583L14.708 31.5064Z" fill="#FFEDE3"/>
<path d="M84.0495 96.4291C83.8723 96.5325 83.582 96.6662 83.1787 96.8302C82.7928 96.9895 82.3998 97.1227 82 97.2299C81.6001 97.337 81.2343 97.3978 80.9027 97.4121C80.5932 97.4391 80.3131 97.4023 80.0625 97.3018C79.812 97.2012 79.5973 97.0258 79.4184 96.7755C79.2395 96.5253 79.0895 96.1742 78.9684 95.7221L77.8783 91.6536L72.8709 92.9953L74.4782 98.9937C74.3009 99.0972 74.0106 99.2308 73.6073 99.3948C73.2214 99.5541 72.8285 99.6874 72.4286 99.7945C72.0287 99.9017 71.663 99.9624 71.3314 99.9767C71.0218 100.004 70.7418 99.967 70.4912 99.8664C70.2406 99.7658 70.0259 99.5904 69.847 99.3402C69.6682 99.0899 69.5182 98.7388 69.3971 98.2867L65.7073 84.5165C65.8893 84.4305 66.1819 84.3055 66.5852 84.1415C66.9838 83.9602 67.3744 83.8182 67.7569 83.7158C68.1568 83.6086 68.5139 83.5502 68.8281 83.5405C69.155 83.5089 69.4438 83.5433 69.6943 83.6439C69.9449 83.7444 70.1596 83.9198 70.3385 84.1701C70.5173 84.4203 70.6673 84.7715 70.7885 85.2235L71.9066 89.3963L76.9139 88.0546L75.2787 81.9519C75.4606 81.8659 75.7533 81.7409 76.1566 81.5769C76.5552 81.3955 76.9458 81.2536 77.3283 81.1511C77.7282 81.044 78.0852 80.9856 78.3994 80.9759C78.7264 80.9442 79.0151 80.9787 79.2657 81.0792C79.5163 81.1798 79.731 81.3552 79.9098 81.6054C80.0887 81.8557 80.2387 82.2068 80.3598 82.6589L84.0495 96.4291ZM92.0563 91.3766C92.3519 91.2974 92.6666 91.1852 93.0003 91.0398C93.3468 90.8725 93.593 90.7133 93.7389 90.5624L93.1799 88.476L91.344 89.1356C90.8665 89.3009 90.4946 89.5123 90.2282 89.7701C89.9618 90.0278 89.8752 90.3305 89.9684 90.6782C90.0616 91.026 90.2689 91.2779 90.5902 91.4341C90.9243 91.5682 91.413 91.549 92.0563 91.3766ZM89.1013 81.1831C90.0402 80.9315 90.9178 80.7989 91.7341 80.7852C92.5677 80.7668 93.3076 80.8853 93.9537 81.1408C94.6126 81.3742 95.1713 81.7556 95.63 82.2849C96.0839 82.7969 96.4204 83.4614 96.6394 84.2786L98.2047 90.1205C98.3258 90.5726 98.2956 90.9813 98.114 91.3468C97.9451 91.6902 97.7148 92.0128 97.4229 92.3146C96.4745 93.2955 94.9745 94.0608 92.9228 94.6106C92.0013 94.8575 91.1435 94.9942 90.3493 95.0206C89.5725 95.0424 88.868 94.9517 88.2358 94.7484C87.621 94.5404 87.0936 94.2065 86.6536 93.7467C86.231 93.2823 85.9242 92.6936 85.7332 91.9808C85.4118 90.7811 85.5213 89.7641 86.0618 88.9298C86.6022 88.0955 87.5991 87.3997 89.0525 86.8426L92.3711 85.562L92.3222 85.3795C92.1871 84.8753 91.8656 84.5794 91.3576 84.4919C90.8624 84.3823 90.1975 84.4394 89.3629 84.663C88.7022 84.84 88.0776 85.0819 87.4889 85.3887C86.9003 85.6956 86.3818 86.0208 85.9335 86.3646C85.6655 86.2687 85.4114 86.0852 85.171 85.8142C84.926 85.5257 84.7569 85.2077 84.6638 84.8599C84.5426 84.4079 84.5515 84.0235 84.6902 83.7068C84.8417 83.368 85.1178 83.0425 85.5187 82.7301C85.9716 82.4037 86.5255 82.1062 87.1803 81.8376C87.8525 81.5643 88.4928 81.3462 89.1013 81.1831Z" fill="#FFEDE3"/>
<path d="M103.49 76.3562C104.543 76.1132 105.549 76.0288 106.508 76.1029C107.481 76.1554 108.356 76.3874 109.135 76.7988C109.913 77.2102 110.586 77.8031 111.152 78.5775C111.715 79.3343 112.132 80.3003 112.403 81.4754C112.663 82.5978 112.731 83.6165 112.61 84.5312C112.489 85.4459 112.206 86.2595 111.76 86.9719C111.311 87.6668 110.707 88.2496 109.947 88.7206C109.205 89.1875 108.334 89.5363 107.335 89.7671C106.581 89.9412 105.853 89.9892 105.151 89.911L106.159 94.2781C105.996 94.3712 105.728 94.4886 105.354 94.6303C104.984 94.7896 104.598 94.9157 104.194 95.0089C103.809 95.0979 103.452 95.1526 103.124 95.1729C102.814 95.1891 102.535 95.1426 102.288 95.0333C102.041 94.9241 101.833 94.7413 101.663 94.485C101.497 94.2462 101.363 93.9075 101.262 93.4691L98.3465 80.8412C98.2372 80.3677 98.2446 79.9596 98.3686 79.6169C98.5103 79.2701 98.7281 78.9335 99.0222 78.607C99.4849 78.1307 100.095 77.6942 100.854 77.2974C101.612 76.9007 102.491 76.587 103.49 76.3562ZM105.863 86.3937C107.67 85.9766 108.324 84.6894 107.826 82.5322C107.567 81.4097 107.146 80.6293 106.565 80.1908C106.001 79.7484 105.298 79.6243 104.456 79.8187C104.123 79.8956 103.835 80.0083 103.592 80.1567C103.345 80.2876 103.137 80.4279 102.969 80.5777L104.305 86.3655C104.54 86.4221 104.788 86.4572 105.05 86.4706C105.311 86.4841 105.583 86.4584 105.863 86.3937Z" fill="#FFEDE3"/>
<path d="M119.367 73.108C120.436 72.9577 121.446 72.9613 122.395 73.1187C123.359 73.2558 124.211 73.5632 124.951 74.041C125.691 74.5187 126.309 75.1679 126.806 75.9887C127.301 76.7917 127.632 77.7903 127.8 78.9846C127.96 80.1254 127.94 81.1461 127.74 82.0468C127.539 82.9475 127.186 83.7333 126.68 84.4042C126.172 85.0572 125.519 85.5852 124.722 85.9882C123.942 86.3886 123.044 86.6602 122.028 86.803C121.261 86.9107 120.532 86.8951 119.84 86.756L120.464 91.1944C120.293 91.2729 120.015 91.3665 119.631 91.4751C119.249 91.6015 118.853 91.6935 118.443 91.7511C118.05 91.8062 117.69 91.8296 117.362 91.8212C117.051 91.8103 116.778 91.7397 116.541 91.6093C116.305 91.479 116.113 91.2787 115.966 91.0086C115.822 90.7562 115.718 90.4072 115.655 89.9616L113.852 77.1277C113.784 76.6465 113.827 76.2405 113.981 75.91C114.152 75.5769 114.398 75.2605 114.72 74.9609C115.222 74.5267 115.868 74.1451 116.658 73.8159C117.448 73.4868 118.351 73.2508 119.367 73.108ZM120.856 83.3141C122.692 83.0561 123.456 81.8309 123.148 79.6384C122.987 78.4976 122.637 77.6835 122.095 77.1961C121.572 76.7061 120.883 76.5213 120.027 76.6415C119.689 76.6891 119.392 76.7763 119.137 76.903C118.88 77.0119 118.66 77.1336 118.479 77.2681L119.306 83.1503C119.535 83.2271 119.779 83.2837 120.039 83.3199C120.298 83.3562 120.571 83.3542 120.856 83.3141Z" fill="#FFEDE3"/>
<path d="M130.456 81.652C130.258 81.202 130.042 80.698 129.808 80.14C129.592 79.582 129.358 78.943 129.106 78.223C128.872 77.503 128.62 76.684 128.35 75.766C128.098 74.83 127.828 73.759 127.54 72.553C127.792 72.301 128.125 72.085 128.539 71.905C128.971 71.707 129.439 71.608 129.943 71.608C130.573 71.608 131.095 71.743 131.509 72.013C131.923 72.265 132.229 72.751 132.427 73.471L134.56 80.896H134.668C134.884 80.284 135.091 79.618 135.289 78.898C135.505 78.178 135.712 77.44 135.91 76.684C136.108 75.91 136.288 75.145 136.45 74.389C136.63 73.615 136.783 72.859 136.909 72.121C137.557 71.779 138.268 71.608 139.042 71.608C139.672 71.608 140.194 71.743 140.608 72.013C141.022 72.283 141.229 72.751 141.229 73.417C141.229 73.903 141.166 74.47 141.04 75.118C140.914 75.748 140.743 76.423 140.527 77.143C140.329 77.863 140.086 78.61 139.798 79.384C139.528 80.14 139.24 80.887 138.934 81.625C138.628 82.363 138.313 83.065 137.989 83.731C137.665 84.379 137.35 84.964 137.044 85.486C136.54 86.368 136.072 87.088 135.64 87.646C135.208 88.204 134.794 88.636 134.398 88.942C134.002 89.266 133.606 89.482 133.21 89.59C132.814 89.716 132.4 89.779 131.968 89.779C131.212 89.779 130.6 89.554 130.132 89.104C129.664 88.654 129.385 88.069 129.295 87.349C129.871 86.899 130.447 86.395 131.023 85.837C131.599 85.297 132.121 84.739 132.589 84.163C132.283 84.073 131.95 83.866 131.59 83.542C131.248 83.2 130.87 82.57 130.456 81.652Z" fill="#FFEDE3"/>
<path d="M146.737 74.3845C146.644 74.1692 146.57 73.8842 146.517 73.5295C146.464 73.1748 146.467 72.8108 146.526 72.4375C146.636 71.7441 146.866 71.2703 147.216 71.0159C147.584 70.7643 148.017 70.678 148.514 70.7568L160.142 72.5984C160.235 72.8137 160.308 73.0986 160.362 73.4533C160.415 73.808 160.412 74.172 160.353 74.5454C160.243 75.2387 160.004 75.7112 159.636 75.9627C159.286 76.2171 158.862 76.3048 158.364 76.226L155.404 75.7572L153.453 88.0776C153.249 88.1 152.929 88.104 152.494 88.0898C152.077 88.0783 151.664 88.0402 151.255 87.9755C150.846 87.9107 150.487 87.8174 150.178 87.6956C149.884 87.5944 149.643 87.4469 149.455 87.2531C149.267 87.0593 149.143 86.8118 149.081 86.5104C149.019 86.2091 149.025 85.8273 149.098 85.365L150.737 75.018L146.737 74.3845ZM165.183 87.0925C165.485 87.1403 165.818 87.1657 166.182 87.1687C166.567 87.1567 166.856 87.1115 167.051 87.033L167.389 84.8996L165.444 84.7555C164.94 84.7122 164.514 84.7541 164.166 84.8812C163.818 85.0083 163.616 85.2496 163.559 85.6052C163.503 85.9608 163.59 86.2752 163.82 86.5486C164.071 86.807 164.525 86.9883 165.183 87.0925ZM166.629 76.5783C167.589 76.7304 168.445 76.9661 169.196 77.2856C169.965 77.6078 170.593 78.0171 171.079 78.5133C171.586 78.9945 171.942 79.5702 172.145 80.2403C172.352 80.8926 172.389 81.6366 172.257 82.4722L171.311 88.4457C171.237 88.9079 171.043 89.2691 170.729 89.5291C170.435 89.7741 170.093 89.9751 169.704 90.1321C168.439 90.6425 166.757 90.7315 164.659 90.3992C163.717 90.25 162.878 90.0259 162.141 89.7271C161.423 89.431 160.816 89.0616 160.321 88.6187C159.844 88.1787 159.498 87.6592 159.283 87.0602C159.086 86.464 159.045 85.8014 159.161 85.0725C159.355 83.8458 159.869 82.9613 160.702 82.4189C161.535 81.8766 162.729 81.6465 164.283 81.7286L167.835 81.9086L167.865 81.7219C167.947 81.2063 167.773 80.8053 167.345 80.5187C166.937 80.2172 166.306 79.9989 165.453 79.8637C164.777 79.7567 164.108 79.7236 163.446 79.7645C162.783 79.8054 162.177 79.8916 161.628 80.0233C161.422 79.8267 161.265 79.5557 161.155 79.2104C161.049 78.8472 161.024 78.4879 161.08 78.1323C161.153 77.6701 161.318 77.3225 161.573 77.0896C161.849 76.8418 162.234 76.6567 162.727 76.5343C163.274 76.4204 163.901 76.3739 164.608 76.3949C165.333 76.4186 166.007 76.4797 166.629 76.5783Z" fill="#FFEDE3"/>
<path d="M198.928 91.553C198.832 92.9177 198.246 93.9503 197.169 94.6508C196.091 95.3514 194.556 95.6319 192.563 95.4926C191.808 95.4398 191.112 95.337 190.473 95.1841C189.834 95.0311 189.289 94.8306 188.837 94.5825C188.404 94.3177 188.065 94.0052 187.82 93.6452C187.592 93.2865 187.495 92.8737 187.528 92.4068C187.558 91.9759 187.673 91.623 187.872 91.3483C188.073 91.0556 188.306 90.8193 188.571 90.6393C189.072 90.9631 189.646 91.2649 190.294 91.5447C190.962 91.8079 191.735 91.9703 192.615 92.0318C193.172 92.0707 193.599 92.0194 193.898 91.8779C194.215 91.7377 194.382 91.5329 194.401 91.2635C194.419 91.0121 194.325 90.8071 194.119 90.6484C193.914 90.4896 193.563 90.3478 193.066 90.2229L192.27 90.0048C190.729 89.5903 189.595 89.0328 188.868 88.3324C188.16 87.6153 187.849 86.6462 187.935 85.4252C187.981 84.7608 188.167 84.1694 188.492 83.6508C188.817 83.1322 189.252 82.7115 189.798 82.3888C190.344 82.0661 190.983 81.8311 191.715 81.6838C192.465 81.5378 193.28 81.4955 194.16 81.557C194.824 81.6035 195.44 81.7007 196.007 81.8486C196.593 81.9798 197.095 82.1592 197.512 82.3869C197.929 82.6145 198.252 82.8988 198.481 83.2396C198.711 83.5624 198.811 83.9393 198.781 84.3702C198.752 84.7832 198.646 85.1367 198.463 85.4306C198.299 85.7079 198.094 85.9371 197.846 86.1183C197.709 86.0185 197.5 85.9136 197.219 85.8038C196.939 85.6759 196.631 85.5642 196.295 85.4685C195.96 85.3549 195.615 85.2586 195.26 85.1796C194.922 85.1019 194.61 85.0529 194.323 85.0329C193.73 84.9914 193.267 85.0312 192.934 85.1523C192.602 85.2554 192.426 85.4506 192.406 85.7379C192.392 85.9354 192.47 86.1033 192.641 86.2415C192.812 86.3798 193.145 86.5203 193.64 86.6632L194.462 86.9102C196.158 87.4257 197.341 88.0588 198.01 88.8093C198.699 89.5431 199.005 90.4577 198.928 91.553Z" fill="#FFEDE3"/>
<path d="M185.036 94.3327C184.835 94.3337 184.534 94.3265 184.135 94.3109C183.75 94.3162 183.363 94.2844 182.973 94.2156C182.583 94.1469 182.233 94.0578 181.923 93.9483C181.631 93.842 181.393 93.6903 181.209 93.4933C181.024 93.2962 180.893 93.0538 180.816 92.7661C180.76 92.4637 180.77 92.0909 180.849 91.6477L183.568 76.2257C183.769 76.2246 184.061 76.2303 184.442 76.2427C184.845 76.2406 185.241 76.2739 185.631 76.3427C186.021 76.4114 186.362 76.499 186.654 76.6053C186.964 76.7147 187.211 76.868 187.395 77.065C187.58 77.2621 187.7 77.5118 187.757 77.8142C187.834 78.1019 187.833 78.4674 187.755 78.9106L185.036 94.3327Z" fill="#FFEDE3"/>
<path d="M175.685 75.2974C175.792 74.6219 176.104 74.0882 176.622 73.6963C177.158 73.3073 177.799 73.1719 178.545 73.2902C179.292 73.4084 179.851 73.7339 180.222 74.2665C180.611 74.802 180.752 75.4075 180.645 76.0831C180.538 76.7586 180.217 77.2909 179.682 77.68C179.164 78.0718 178.532 78.2086 177.785 78.0903C177.038 77.9721 176.471 77.6452 176.082 77.1098C175.71 76.5771 175.578 75.973 175.685 75.2974ZM177.813 92.5832C177.612 92.5878 177.312 92.5857 176.912 92.5771C176.528 92.5891 176.14 92.5641 175.749 92.5022C175.357 92.4402 175.006 92.3572 174.694 92.2532C174.401 92.152 174.16 92.0045 173.972 91.8107C173.784 91.6169 173.649 91.3768 173.566 91.0905C173.505 90.7891 173.509 90.4162 173.58 89.9717L175.299 79.118C175.5 79.1134 175.791 79.1141 176.173 79.1199C176.576 79.1107 176.972 79.1371 177.363 79.199C177.755 79.261 178.097 79.3425 178.391 79.4438C178.702 79.5478 178.952 79.6967 179.14 79.8905C179.328 80.0843 179.453 80.3318 179.515 80.6332C179.597 80.9196 179.603 81.285 179.532 81.7295L177.813 92.5832Z" fill="#FFEDE3"/>
</svg>
