<svg width="300" height="300" viewBox="0 0 300 300" fill="none" xmlns="http://www.w3.org/2000/svg">
<path d="M90.0495 174.429C89.8723 174.533 89.582 174.666 89.1787 174.83C88.7928 174.989 88.3998 175.123 88 175.23C87.6001 175.337 87.2343 175.398 86.9027 175.412C86.5932 175.439 86.3131 175.402 86.0625 175.302C85.812 175.201 85.5973 175.026 85.4184 174.776C85.2395 174.525 85.0895 174.174 84.9684 173.722L83.8783 169.654L78.8709 170.995L80.4782 176.994C80.3009 177.097 80.0106 177.231 79.6073 177.395C79.2214 177.554 78.8285 177.687 78.4286 177.795C78.0287 177.902 77.663 177.962 77.3314 177.977C77.0218 178.004 76.7418 177.967 76.4912 177.866C76.2406 177.766 76.0259 177.59 75.847 177.34C75.6682 177.09 75.5182 176.739 75.3971 176.287L71.7073 162.517C71.8893 162.43 72.1819 162.305 72.5852 162.142C72.9838 161.96 73.3744 161.818 73.7569 161.716C74.1568 161.609 74.5139 161.55 74.8281 161.541C75.155 161.509 75.4438 161.543 75.6943 161.644C75.9449 161.744 76.1596 161.92 76.3385 162.17C76.5173 162.42 76.6673 162.771 76.7885 163.224L77.9066 167.396L82.9139 166.055L81.2787 159.952C81.4606 159.866 81.7533 159.741 82.1566 159.577C82.5552 159.396 82.9458 159.254 83.3283 159.151C83.7282 159.044 84.0852 158.986 84.3994 158.976C84.7264 158.944 85.0151 158.979 85.2657 159.079C85.5163 159.18 85.731 159.355 85.9098 159.605C86.0887 159.856 86.2387 160.207 86.3598 160.659L90.0495 174.429ZM98.0563 169.377C98.3519 169.297 98.6666 169.185 99.0003 169.04C99.3468 168.872 99.593 168.713 99.7389 168.562L99.1799 166.476L97.344 167.136C96.8665 167.301 96.4946 167.512 96.2282 167.77C95.9618 168.028 95.8752 168.331 95.9684 168.678C96.0616 169.026 96.2689 169.278 96.5902 169.434C96.9243 169.568 97.413 169.549 98.0563 169.377ZM95.1013 159.183C96.0402 158.932 96.9178 158.799 97.7341 158.785C98.5677 158.767 99.3076 158.885 99.9537 159.141C100.613 159.374 101.171 159.756 101.63 160.285C102.084 160.797 102.42 161.461 102.639 162.279L104.205 168.121C104.326 168.573 104.296 168.981 104.114 169.347C103.945 169.69 103.715 170.013 103.423 170.315C102.475 171.296 100.974 172.061 98.9228 172.611C98.0013 172.857 97.1435 172.994 96.3493 173.021C95.5725 173.042 94.868 172.952 94.2358 172.748C93.621 172.54 93.0936 172.207 92.6536 171.747C92.231 171.282 91.9242 170.694 91.7332 169.981C91.4118 168.781 91.5213 167.764 92.0618 166.93C92.6022 166.095 93.5991 165.4 95.0525 164.843L98.3711 163.562L98.3222 163.379C98.1871 162.875 97.8656 162.579 97.3576 162.492C96.8624 162.382 96.1975 162.439 95.3629 162.663C94.7022 162.84 94.0776 163.082 93.4889 163.389C92.9003 163.696 92.3818 164.021 91.9335 164.365C91.6655 164.269 91.4114 164.085 91.171 163.814C90.926 163.526 90.7569 163.208 90.6638 162.86C90.5426 162.408 90.5515 162.023 90.6902 161.707C90.8417 161.368 91.1178 161.042 91.5187 160.73C91.9716 160.404 92.5255 160.106 93.1803 159.838C93.8525 159.564 94.4928 159.346 95.1013 159.183Z" fill="#FB4D00"/>
<path d="M109.49 154.356C110.543 154.113 111.549 154.029 112.508 154.103C113.481 154.155 114.356 154.387 115.135 154.799C115.913 155.21 116.586 155.803 117.152 156.577C117.715 157.334 118.132 158.3 118.403 159.475C118.663 160.598 118.731 161.616 118.61 162.531C118.489 163.446 118.206 164.26 117.76 164.972C117.311 165.667 116.707 166.25 115.947 166.721C115.205 167.187 114.334 167.536 113.335 167.767C112.581 167.941 111.853 167.989 111.151 167.911L112.159 172.278C111.996 172.371 111.728 172.489 111.354 172.63C110.984 172.79 110.598 172.916 110.194 173.009C109.809 173.098 109.452 173.153 109.124 173.173C108.814 173.189 108.535 173.143 108.288 173.033C108.041 172.924 107.833 172.741 107.663 172.485C107.497 172.246 107.363 171.908 107.262 171.469L104.346 158.841C104.237 158.368 104.245 157.96 104.369 157.617C104.51 157.27 104.728 156.933 105.022 156.607C105.485 156.131 106.095 155.694 106.854 155.297C107.612 154.901 108.491 154.587 109.49 154.356ZM111.863 164.394C113.67 163.977 114.324 162.689 113.826 160.532C113.567 159.41 113.146 158.629 112.565 158.191C112.001 157.748 111.298 157.624 110.456 157.819C110.123 157.896 109.835 158.008 109.592 158.157C109.345 158.288 109.137 158.428 108.969 158.578L110.305 164.365C110.54 164.422 110.788 164.457 111.05 164.471C111.311 164.484 111.583 164.458 111.863 164.394Z" fill="#FB4D00"/>
<path d="M125.367 151.108C126.436 150.958 127.446 150.961 128.395 151.119C129.359 151.256 130.211 151.563 130.951 152.041C131.691 152.519 132.309 153.168 132.806 153.989C133.301 154.792 133.632 155.79 133.8 156.985C133.96 158.125 133.94 159.146 133.74 160.047C133.539 160.947 133.186 161.733 132.68 162.404C132.172 163.057 131.519 163.585 130.722 163.988C129.942 164.389 129.044 164.66 128.028 164.803C127.261 164.911 126.532 164.895 125.84 164.756L126.464 169.194C126.293 169.273 126.015 169.366 125.631 169.475C125.249 169.601 124.853 169.694 124.443 169.751C124.05 169.806 123.69 169.83 123.362 169.821C123.051 169.81 122.778 169.74 122.541 169.609C122.305 169.479 122.113 169.279 121.966 169.009C121.822 168.756 121.718 168.407 121.655 167.962L119.852 155.128C119.784 154.646 119.827 154.241 119.981 153.91C120.152 153.577 120.398 153.261 120.72 152.961C121.222 152.527 121.868 152.145 122.658 151.816C123.448 151.487 124.351 151.251 125.367 151.108ZM126.856 161.314C128.692 161.056 129.456 159.831 129.148 157.638C128.987 156.498 128.637 155.684 128.095 155.196C127.572 154.706 126.883 154.521 126.027 154.642C125.689 154.689 125.392 154.776 125.137 154.903C124.88 155.012 124.66 155.134 124.479 155.268L125.306 161.15C125.535 161.227 125.779 161.284 126.039 161.32C126.298 161.356 126.571 161.354 126.856 161.314Z" fill="#FB4D00"/>
<path d="M136.456 159.652C136.258 159.202 136.042 158.698 135.808 158.14C135.592 157.582 135.358 156.943 135.106 156.223C134.872 155.503 134.62 154.684 134.35 153.766C134.098 152.83 133.828 151.759 133.54 150.553C133.792 150.301 134.125 150.085 134.539 149.905C134.971 149.707 135.439 149.608 135.943 149.608C136.573 149.608 137.095 149.743 137.509 150.013C137.923 150.265 138.229 150.751 138.427 151.471L140.56 158.896H140.668C140.884 158.284 141.091 157.618 141.289 156.898C141.505 156.178 141.712 155.44 141.91 154.684C142.108 153.91 142.288 153.145 142.45 152.389C142.63 151.615 142.783 150.859 142.909 150.121C143.557 149.779 144.268 149.608 145.042 149.608C145.672 149.608 146.194 149.743 146.608 150.013C147.022 150.283 147.229 150.751 147.229 151.417C147.229 151.903 147.166 152.47 147.04 153.118C146.914 153.748 146.743 154.423 146.527 155.143C146.329 155.863 146.086 156.61 145.798 157.384C145.528 158.14 145.24 158.887 144.934 159.625C144.628 160.363 144.313 161.065 143.989 161.731C143.665 162.379 143.35 162.964 143.044 163.486C142.54 164.368 142.072 165.088 141.64 165.646C141.208 166.204 140.794 166.636 140.398 166.942C140.002 167.266 139.606 167.482 139.21 167.59C138.814 167.716 138.4 167.779 137.968 167.779C137.212 167.779 136.6 167.554 136.132 167.104C135.664 166.654 135.385 166.069 135.295 165.349C135.871 164.899 136.447 164.395 137.023 163.837C137.599 163.297 138.121 162.739 138.589 162.163C138.283 162.073 137.95 161.866 137.59 161.542C137.248 161.2 136.87 160.57 136.456 159.652Z" fill="#FB4D00"/>
<path d="M152.737 152.384C152.644 152.169 152.57 151.884 152.517 151.53C152.464 151.175 152.467 150.811 152.526 150.437C152.636 149.744 152.866 149.27 153.216 149.016C153.584 148.764 154.017 148.678 154.514 148.757L166.142 150.598C166.235 150.814 166.308 151.099 166.362 151.453C166.415 151.808 166.412 152.172 166.353 152.545C166.243 153.239 166.004 153.711 165.636 153.963C165.286 154.217 164.862 154.305 164.364 154.226L161.404 153.757L159.453 166.078C159.249 166.1 158.929 166.104 158.494 166.09C158.077 166.078 157.664 166.04 157.255 165.975C156.846 165.911 156.487 165.817 156.178 165.696C155.884 165.594 155.643 165.447 155.455 165.253C155.267 165.059 155.143 164.812 155.081 164.51C155.019 164.209 155.025 163.827 155.098 163.365L156.737 153.018L152.737 152.384ZM171.183 165.092C171.485 165.14 171.818 165.166 172.182 165.169C172.567 165.157 172.856 165.112 173.051 165.033L173.389 162.9L171.444 162.755C170.94 162.712 170.514 162.754 170.166 162.881C169.818 163.008 169.616 163.25 169.559 163.605C169.503 163.961 169.59 164.275 169.82 164.549C170.071 164.807 170.525 164.988 171.183 165.092ZM172.629 154.578C173.589 154.73 174.445 154.966 175.196 155.286C175.965 155.608 176.593 156.017 177.079 156.513C177.586 156.995 177.942 157.57 178.145 158.24C178.352 158.893 178.389 159.637 178.257 160.472L177.311 166.446C177.237 166.908 177.043 167.269 176.729 167.529C176.435 167.774 176.093 167.975 175.704 168.132C174.439 168.642 172.757 168.732 170.659 168.399C169.717 168.25 168.878 168.026 168.141 167.727C167.423 167.431 166.816 167.062 166.321 166.619C165.844 166.179 165.498 165.659 165.283 165.06C165.086 164.464 165.045 163.801 165.161 163.073C165.355 161.846 165.869 160.961 166.702 160.419C167.535 159.877 168.729 159.646 170.283 159.729L173.835 159.909L173.865 159.722C173.947 159.206 173.773 158.805 173.345 158.519C172.937 158.217 172.306 157.999 171.453 157.864C170.777 157.757 170.108 157.724 169.446 157.765C168.783 157.805 168.177 157.892 167.628 158.023C167.422 157.827 167.265 157.556 167.155 157.21C167.049 156.847 167.024 156.488 167.08 156.132C167.153 155.67 167.318 155.323 167.573 155.09C167.849 154.842 168.234 154.657 168.727 154.534C169.274 154.42 169.901 154.374 170.608 154.395C171.333 154.419 172.007 154.48 172.629 154.578Z" fill="#FB4D00"/>
<path d="M204.928 169.553C204.832 170.918 204.246 171.95 203.169 172.651C202.091 173.351 200.556 173.632 198.563 173.493C197.808 173.44 197.112 173.337 196.473 173.184C195.834 173.031 195.289 172.831 194.837 172.582C194.404 172.318 194.065 172.005 193.82 171.645C193.592 171.286 193.495 170.874 193.528 170.407C193.558 169.976 193.673 169.623 193.872 169.348C194.073 169.056 194.306 168.819 194.571 168.639C195.072 168.963 195.646 169.265 196.294 169.545C196.962 169.808 197.735 169.97 198.615 170.032C199.172 170.071 199.599 170.019 199.898 169.878C200.215 169.738 200.382 169.533 200.401 169.264C200.419 169.012 200.325 168.807 200.119 168.648C199.914 168.49 199.563 168.348 199.066 168.223L198.27 168.005C196.729 167.59 195.595 167.033 194.868 166.332C194.16 165.615 193.849 164.646 193.935 163.425C193.981 162.761 194.167 162.169 194.492 161.651C194.817 161.132 195.252 160.712 195.798 160.389C196.344 160.066 196.983 159.831 197.715 159.684C198.465 159.538 199.28 159.495 200.16 159.557C200.824 159.603 201.44 159.701 202.007 159.849C202.593 159.98 203.095 160.159 203.512 160.387C203.929 160.615 204.252 160.899 204.481 161.24C204.711 161.562 204.811 161.939 204.781 162.37C204.752 162.783 204.646 163.137 204.463 163.431C204.299 163.708 204.094 163.937 203.846 164.118C203.709 164.018 203.5 163.914 203.219 163.804C202.939 163.676 202.631 163.564 202.295 163.469C201.96 163.355 201.615 163.259 201.26 163.18C200.922 163.102 200.61 163.053 200.323 163.033C199.73 162.991 199.267 163.031 198.934 163.152C198.602 163.255 198.426 163.451 198.406 163.738C198.392 163.935 198.47 164.103 198.641 164.242C198.812 164.38 199.145 164.52 199.64 164.663L200.462 164.91C202.158 165.426 203.341 166.059 204.01 166.809C204.699 167.543 205.005 168.458 204.928 169.553Z" fill="#FB4D00"/>
<path d="M191.036 172.333C190.835 172.334 190.534 172.326 190.135 172.311C189.75 172.316 189.363 172.284 188.973 172.216C188.583 172.147 188.233 172.058 187.923 171.948C187.631 171.842 187.393 171.69 187.209 171.493C187.024 171.296 186.893 171.054 186.816 170.766C186.76 170.464 186.77 170.091 186.849 169.648L189.568 154.226C189.769 154.225 190.061 154.23 190.442 154.243C190.845 154.241 191.241 154.274 191.631 154.343C192.021 154.411 192.362 154.499 192.654 154.605C192.964 154.715 193.211 154.868 193.395 155.065C193.58 155.262 193.7 155.512 193.757 155.814C193.834 156.102 193.833 156.467 193.755 156.911L191.036 172.333Z" fill="#FB4D00"/>
<path d="M181.685 153.297C181.792 152.622 182.104 152.088 182.622 151.696C183.158 151.307 183.799 151.172 184.545 151.29C185.292 151.408 185.851 151.734 186.222 152.267C186.611 152.802 186.752 153.407 186.645 154.083C186.538 154.759 186.217 155.291 185.682 155.68C185.164 156.072 184.532 156.209 183.785 156.09C183.038 155.972 182.471 155.645 182.082 155.11C181.71 154.577 181.578 153.973 181.685 153.297ZM183.813 170.583C183.612 170.588 183.312 170.586 182.912 170.577C182.528 170.589 182.14 170.564 181.749 170.502C181.357 170.44 181.006 170.357 180.694 170.253C180.401 170.152 180.16 170.005 179.972 169.811C179.784 169.617 179.649 169.377 179.566 169.09C179.505 168.789 179.509 168.416 179.58 167.972L181.299 157.118C181.5 157.113 181.791 157.114 182.173 157.12C182.576 157.111 182.972 157.137 183.363 157.199C183.755 157.261 184.097 157.343 184.391 157.444C184.702 157.548 184.952 157.697 185.14 157.89C185.328 158.084 185.453 158.332 185.515 158.633C185.597 158.92 185.603 159.285 185.532 159.729L183.813 170.583Z" fill="#FB4D00"/>
<path d="M56.4929 179.112C50.253 182.337 46.0647 188.423 45.2796 192.641C42.3609 208.318 56.5909 206.594 56.4929 206.594C56.4144 206.594 59.8214 206.183 59.4776 203.472C59.003 199.73 58.778 196.07 59.4776 192.641C60.2818 188.698 62.9407 186.122 67.4543 184.913C78.3101 188.087 87.7981 189.081 95.9181 187.895C108.098 186.117 118.826 175.069 145.273 175.069C160.4 174.404 173.373 182.688 185.185 184.245C196.996 185.802 206.662 182.369 206.662 182.369" stroke="#FB4D00" stroke-width="2.4" stroke-linecap="round"/>
<path d="M240.734 118.576C253.161 126.035 237.471 130.405 236.896 130.405C236.321 130.405 243.313 131.667 242.365 137.788C241.732 141.868 236.067 143.986 225.368 144.14" stroke="#FB4D00" stroke-width="2.4" stroke-linecap="round"/>
<path d="M240.734 118.576C243.431 115.798 244.779 113.027 244.779 110.263C244.779 106.117 241.826 95.3082 237.05 87.9445" stroke="#FB4D00" stroke-width="2.4" stroke-linecap="round"/>
<path d="M225.368 144.14C227.72 148.403 232.845 156.537 232.845 164.233C232.845 170.686 229.062 176.778 226.503 181.303" stroke="#FB4D00" stroke-width="2.32275" stroke-linecap="round"/>
<path d="M226.503 181.303C233.432 184.702 236.896 187.227 236.896 188.879C237.384 192.143 236.713 195.318 234.884 198.405C234.497 199.057 234.059 199.705 233.569 200.349C230.76 204.043 228.026 206.377 225.368 207.35C223.239 208.117 221.33 208.117 219.642 207.35C217.11 206.2 216.845 203.369 219.642 195.952C212.087 193.021 207.846 189.732 206.92 186.085C205.993 182.437 207.386 177.794 211.097 172.154" stroke="#FB4D00" stroke-width="2.4" stroke-linecap="round"/>
<path d="M51.9179 182.298C40.8684 180.317 34.3949 173.71 32.4977 162.476C16.0962 150.252 11.3472 132.821 18.2505 110.185C20.3736 98.4207 28.792 98.9519 34.6972 109.708C39.5661 118.576 51.7341 124.031 53.7894 125.433C57.3887 127.888 64.4831 131.358 65.3405 143.018C72.3137 147.673 81.2044 150 92.0128 150C108.225 150 123.554 133.611 150 133.611C174.645 133.611 181.444 144.14 197.133 144.14C212.823 144.14 229.106 133.611 236.896 87.9445" stroke="#FB4D00" stroke-width="2.4" stroke-linecap="round"/>
<path d="M54.5755 139.936C42.3786 145.306 37.1589 159.348 38.0734 162.476C38.5869 164.233 47.3471 173.336 53.7894 169.13C60.584 164.694 64.4344 155.747 65.3405 142.289V143.018" stroke="#FB4D00" stroke-width="2.4" stroke-linecap="round"/>
<path d="M18.6825 108.878C24.9112 109.308 29.3398 108.092 31.9682 105.23" stroke="#FB4D00" stroke-width="2.4"/>
<path d="M21.6288 133.611C22.7227 137.405 25.4696 138.819 29.8694 137.851" stroke="#FB4D00" stroke-width="2.4" stroke-linecap="round"/>
<path d="M42.8639 132.764C44.0486 132.295 44.7604 131.286 44.4536 130.51C44.1468 129.734 42.9377 129.484 41.753 129.952C40.5682 130.421 39.8565 131.429 40.1632 132.206C40.47 132.982 41.6791 133.232 42.8639 132.764Z" fill="#FB4D00"/>
<path d="M40.7187 177.901C37.3137 181.625 33.6973 186.176 29.8694 191.553C27.6725 194.639 21.0424 194.841 21.0424 184.913C21.0424 177.901 25.3253 175.76 34.6972 170.316" stroke="#FB4D00" stroke-width="2.4"/>
<path d="M224.042 200.349C223.195 201.956 222.842 204.038 222.983 206.594" stroke="#FB4D00" stroke-width="2.4" stroke-linecap="round"/>
<path d="M20.0541 109.441C18.569 105.922 22.5625 101.518 24.016 102.172C24.016 102.172 30.1766 103.365 31.0154 106.593L20.0541 109.441Z" fill="#FB4D00"/>
</svg>
