<svg width="250" height="140" viewBox="0 0 250 140" fill="none" xmlns="http://www.w3.org/2000/svg">
<path d="M84.0495 97.4291C83.8723 97.5325 83.582 97.6662 83.1787 97.8302C82.7928 97.9895 82.3998 98.1227 82 98.2299C81.6001 98.337 81.2343 98.3978 80.9027 98.4121C80.5932 98.4391 80.3131 98.4023 80.0625 98.3018C79.812 98.2012 79.5973 98.0258 79.4184 97.7755C79.2395 97.5253 79.0895 97.1742 78.9684 96.7221L77.8783 92.6536L72.8709 93.9953L74.4782 99.9937C74.3009 100.097 74.0106 100.231 73.6073 100.395C73.2214 100.554 72.8285 100.687 72.4286 100.795C72.0287 100.902 71.663 100.962 71.3314 100.977C71.0218 101.004 70.7418 100.967 70.4912 100.866C70.2406 100.766 70.0259 100.59 69.847 100.34C69.6682 100.09 69.5182 99.7388 69.3971 99.2867L65.7073 85.5165C65.8893 85.4305 66.1819 85.3055 66.5852 85.1415C66.9838 84.9602 67.3744 84.8182 67.7569 84.7158C68.1568 84.6086 68.5139 84.5502 68.8281 84.5405C69.155 84.5089 69.4438 84.5433 69.6943 84.6439C69.9449 84.7444 70.1596 84.9198 70.3385 85.1701C70.5173 85.4203 70.6673 85.7715 70.7885 86.2235L71.9066 90.3963L76.9139 89.0546L75.2787 82.9519C75.4606 82.8659 75.7533 82.7409 76.1566 82.5769C76.5552 82.3955 76.9458 82.2536 77.3283 82.1511C77.7282 82.044 78.0852 81.9856 78.3994 81.9759C78.7264 81.9442 79.0151 81.9787 79.2657 82.0792C79.5163 82.1798 79.731 82.3552 79.9098 82.6054C80.0887 82.8557 80.2387 83.2068 80.3598 83.6589L84.0495 97.4291ZM92.0563 92.3766C92.3519 92.2974 92.6666 92.1852 93.0003 92.0398C93.3468 91.8725 93.593 91.7133 93.7389 91.5624L93.1799 89.476L91.344 90.1356C90.8665 90.3009 90.4946 90.5123 90.2282 90.7701C89.9618 91.0278 89.8752 91.3305 89.9684 91.6782C90.0616 92.026 90.2689 92.2779 90.5902 92.4341C90.9243 92.5682 91.413 92.549 92.0563 92.3766ZM89.1013 82.1831C90.0402 81.9315 90.9178 81.7989 91.7341 81.7852C92.5677 81.7668 93.3076 81.8853 93.9537 82.1408C94.6126 82.3742 95.1713 82.7556 95.63 83.2849C96.0839 83.7969 96.4204 84.4614 96.6394 85.2786L98.2047 91.1205C98.3258 91.5726 98.2956 91.9813 98.114 92.3468C97.9451 92.6902 97.7148 93.0128 97.4229 93.3146C96.4745 94.2955 94.9745 95.0608 92.9228 95.6106C92.0013 95.8575 91.1435 95.9942 90.3493 96.0206C89.5725 96.0424 88.868 95.9517 88.2358 95.7484C87.621 95.5404 87.0936 95.2065 86.6536 94.7467C86.231 94.2823 85.9242 93.6936 85.7332 92.9808C85.4118 91.7811 85.5213 90.7641 86.0618 89.9298C86.6022 89.0955 87.5991 88.3997 89.0525 87.8426L92.3711 86.562L92.3222 86.3795C92.1871 85.8753 91.8656 85.5794 91.3576 85.4919C90.8624 85.3823 90.1975 85.4394 89.3629 85.663C88.7022 85.84 88.0776 86.0819 87.4889 86.3887C86.9003 86.6956 86.3818 87.0208 85.9335 87.3646C85.6655 87.2687 85.4114 87.0852 85.171 86.8142C84.926 86.5257 84.7569 86.2077 84.6638 85.8599C84.5426 85.4079 84.5515 85.0235 84.6902 84.7068C84.8417 84.368 85.1178 84.0425 85.5187 83.7301C85.9716 83.4037 86.5255 83.1062 87.1803 82.8376C87.8525 82.5643 88.4928 82.3462 89.1013 82.1831Z" fill="black"/>
<path d="M103.49 77.3562C104.543 77.1132 105.549 77.0288 106.508 77.1029C107.481 77.1554 108.356 77.3874 109.135 77.7988C109.913 78.2102 110.586 78.8031 111.152 79.5775C111.715 80.3343 112.132 81.3003 112.403 82.4754C112.663 83.5978 112.731 84.6165 112.61 85.5312C112.489 86.4459 112.206 87.2595 111.76 87.9719C111.311 88.6668 110.707 89.2496 109.947 89.7206C109.205 90.1875 108.334 90.5363 107.335 90.7671C106.581 90.9412 105.853 90.9892 105.151 90.911L106.159 95.2781C105.996 95.3712 105.728 95.4886 105.354 95.6303C104.984 95.7896 104.598 95.9157 104.194 96.0089C103.809 96.0979 103.452 96.1526 103.124 96.1729C102.814 96.1891 102.535 96.1426 102.288 96.0333C102.041 95.9241 101.833 95.7413 101.663 95.485C101.497 95.2462 101.363 94.9075 101.262 94.4691L98.3465 81.8412C98.2372 81.3677 98.2446 80.9596 98.3686 80.6169C98.5103 80.2701 98.7281 79.9335 99.0222 79.607C99.4849 79.1307 100.095 78.6942 100.854 78.2974C101.612 77.9007 102.491 77.587 103.49 77.3562ZM105.863 87.3937C107.67 86.9766 108.324 85.6894 107.826 83.5322C107.567 82.4097 107.146 81.6293 106.565 81.1908C106.001 80.7484 105.298 80.6243 104.456 80.8187C104.123 80.8956 103.835 81.0083 103.592 81.1567C103.345 81.2876 103.137 81.4279 102.969 81.5777L104.305 87.3655C104.54 87.4221 104.788 87.4572 105.05 87.4706C105.311 87.4841 105.583 87.4584 105.863 87.3937Z" fill="black"/>
<path d="M119.367 74.108C120.436 73.9577 121.446 73.9613 122.395 74.1187C123.359 74.2558 124.211 74.5632 124.951 75.041C125.691 75.5187 126.309 76.1679 126.806 76.9887C127.301 77.7917 127.632 78.7903 127.8 79.9846C127.96 81.1254 127.94 82.1461 127.74 83.0468C127.539 83.9475 127.186 84.7333 126.68 85.4042C126.172 86.0572 125.519 86.5852 124.722 86.9882C123.942 87.3886 123.044 87.6602 122.028 87.803C121.261 87.9107 120.532 87.8951 119.84 87.756L120.464 92.1944C120.293 92.2729 120.015 92.3665 119.631 92.4751C119.249 92.6015 118.853 92.6935 118.443 92.7511C118.05 92.8062 117.69 92.8296 117.362 92.8212C117.051 92.8103 116.778 92.7397 116.541 92.6093C116.305 92.479 116.113 92.2787 115.966 92.0086C115.822 91.7562 115.718 91.4072 115.655 90.9616L113.852 78.1277C113.784 77.6465 113.827 77.2405 113.981 76.91C114.152 76.5769 114.398 76.2605 114.72 75.9609C115.222 75.5267 115.868 75.1451 116.658 74.8159C117.448 74.4868 118.351 74.2508 119.367 74.108ZM120.856 84.3141C122.692 84.0561 123.456 82.8309 123.148 80.6384C122.987 79.4976 122.637 78.6835 122.095 78.1961C121.572 77.7061 120.883 77.5213 120.027 77.6415C119.689 77.6891 119.392 77.7763 119.137 77.903C118.88 78.0119 118.66 78.1336 118.479 78.2681L119.306 84.1503C119.535 84.2271 119.779 84.2837 120.039 84.3199C120.298 84.3562 120.571 84.3542 120.856 84.3141Z" fill="black"/>
<path d="M130.456 82.652C130.258 82.202 130.042 81.698 129.808 81.14C129.592 80.582 129.358 79.943 129.106 79.223C128.872 78.503 128.62 77.684 128.35 76.766C128.098 75.83 127.828 74.759 127.54 73.553C127.792 73.301 128.125 73.085 128.539 72.905C128.971 72.707 129.439 72.608 129.943 72.608C130.573 72.608 131.095 72.743 131.509 73.013C131.923 73.265 132.229 73.751 132.427 74.471L134.56 81.896H134.668C134.884 81.284 135.091 80.618 135.289 79.898C135.505 79.178 135.712 78.44 135.91 77.684C136.108 76.91 136.288 76.145 136.45 75.389C136.63 74.615 136.783 73.859 136.909 73.121C137.557 72.779 138.268 72.608 139.042 72.608C139.672 72.608 140.194 72.743 140.608 73.013C141.022 73.283 141.229 73.751 141.229 74.417C141.229 74.903 141.166 75.47 141.04 76.118C140.914 76.748 140.743 77.423 140.527 78.143C140.329 78.863 140.086 79.61 139.798 80.384C139.528 81.14 139.24 81.887 138.934 82.625C138.628 83.363 138.313 84.065 137.989 84.731C137.665 85.379 137.35 85.964 137.044 86.486C136.54 87.368 136.072 88.088 135.64 88.646C135.208 89.204 134.794 89.636 134.398 89.942C134.002 90.266 133.606 90.482 133.21 90.59C132.814 90.716 132.4 90.779 131.968 90.779C131.212 90.779 130.6 90.554 130.132 90.104C129.664 89.654 129.385 89.069 129.295 88.349C129.871 87.899 130.447 87.395 131.023 86.837C131.599 86.297 132.121 85.739 132.589 85.163C132.283 85.073 131.95 84.866 131.59 84.542C131.248 84.2 130.87 83.57 130.456 82.652Z" fill="black"/>
<path d="M146.737 75.3845C146.644 75.1692 146.57 74.8842 146.517 74.5295C146.464 74.1748 146.467 73.8108 146.526 73.4375C146.636 72.7441 146.866 72.2703 147.216 72.0159C147.584 71.7643 148.017 71.678 148.514 71.7568L160.142 73.5984C160.235 73.8137 160.308 74.0986 160.362 74.4533C160.415 74.808 160.412 75.172 160.353 75.5454C160.243 76.2387 160.004 76.7112 159.636 76.9627C159.286 77.2171 158.862 77.3048 158.364 77.226L155.404 76.7572L153.453 89.0776C153.249 89.1 152.929 89.104 152.494 89.0898C152.077 89.0783 151.664 89.0402 151.255 88.9755C150.846 88.9107 150.487 88.8174 150.178 88.6956C149.884 88.5944 149.643 88.4469 149.455 88.2531C149.267 88.0593 149.143 87.8118 149.081 87.5104C149.019 87.2091 149.025 86.8273 149.098 86.365L150.737 76.018L146.737 75.3845ZM165.183 88.0925C165.485 88.1403 165.818 88.1657 166.182 88.1687C166.567 88.1567 166.856 88.1115 167.051 88.033L167.389 85.8996L165.444 85.7555C164.94 85.7122 164.514 85.7541 164.166 85.8812C163.818 86.0083 163.616 86.2496 163.559 86.6052C163.503 86.9608 163.59 87.2752 163.82 87.5486C164.071 87.807 164.525 87.9883 165.183 88.0925ZM166.629 77.5783C167.589 77.7304 168.445 77.9661 169.196 78.2856C169.965 78.6078 170.593 79.0171 171.079 79.5133C171.586 79.9945 171.942 80.5702 172.145 81.2403C172.352 81.8926 172.389 82.6366 172.257 83.4722L171.311 89.4457C171.237 89.9079 171.043 90.2691 170.729 90.5291C170.435 90.7741 170.093 90.9751 169.704 91.1321C168.439 91.6425 166.757 91.7315 164.659 91.3992C163.717 91.25 162.878 91.0259 162.141 90.7271C161.423 90.431 160.816 90.0616 160.321 89.6187C159.844 89.1787 159.498 88.6592 159.283 88.0602C159.086 87.464 159.045 86.8014 159.161 86.0725C159.355 84.8458 159.869 83.9613 160.702 83.4189C161.535 82.8766 162.729 82.6465 164.283 82.7286L167.835 82.9086L167.865 82.7219C167.947 82.2063 167.773 81.8053 167.345 81.5187C166.937 81.2172 166.306 80.9989 165.453 80.8637C164.777 80.7567 164.108 80.7236 163.446 80.7645C162.783 80.8054 162.177 80.8916 161.628 81.0233C161.422 80.8267 161.265 80.5557 161.155 80.2104C161.049 79.8472 161.024 79.4879 161.08 79.1323C161.153 78.6701 161.318 78.3225 161.573 78.0896C161.849 77.8418 162.234 77.6567 162.727 77.5343C163.274 77.4204 163.901 77.3739 164.608 77.3949C165.333 77.4186 166.007 77.4797 166.629 77.5783Z" fill="black"/>
<path d="M198.928 92.553C198.832 93.9177 198.246 94.9503 197.169 95.6508C196.091 96.3514 194.556 96.6319 192.563 96.4926C191.808 96.4398 191.112 96.337 190.473 96.1841C189.834 96.0311 189.289 95.8306 188.837 95.5825C188.404 95.3177 188.065 95.0052 187.82 94.6452C187.592 94.2865 187.495 93.8737 187.528 93.4068C187.558 92.9759 187.673 92.623 187.872 92.3483C188.073 92.0556 188.306 91.8193 188.571 91.6393C189.072 91.9631 189.646 92.2649 190.294 92.5447C190.962 92.8079 191.735 92.9703 192.615 93.0318C193.172 93.0707 193.599 93.0194 193.898 92.8779C194.215 92.7377 194.382 92.5329 194.401 92.2635C194.419 92.0121 194.325 91.8071 194.119 91.6484C193.914 91.4896 193.563 91.3478 193.066 91.2229L192.27 91.0048C190.729 90.5903 189.595 90.0328 188.868 89.3324C188.16 88.6153 187.849 87.6462 187.935 86.4252C187.981 85.7608 188.167 85.1694 188.492 84.6508C188.817 84.1322 189.252 83.7115 189.798 83.3888C190.344 83.0661 190.983 82.8311 191.715 82.6838C192.465 82.5378 193.28 82.4955 194.16 82.557C194.824 82.6035 195.44 82.7007 196.007 82.8486C196.593 82.9798 197.095 83.1592 197.512 83.3869C197.929 83.6145 198.252 83.8988 198.481 84.2396C198.711 84.5624 198.811 84.9393 198.781 85.3702C198.752 85.7832 198.646 86.1367 198.463 86.4306C198.299 86.7079 198.094 86.9371 197.846 87.1183C197.709 87.0185 197.5 86.9136 197.219 86.8038C196.939 86.6759 196.631 86.5642 196.295 86.4685C195.96 86.3549 195.615 86.2586 195.26 86.1796C194.922 86.1019 194.61 86.0529 194.323 86.0329C193.73 85.9914 193.267 86.0312 192.934 86.1523C192.602 86.2554 192.426 86.4506 192.406 86.7379C192.392 86.9354 192.47 87.1033 192.641 87.2415C192.812 87.3798 193.145 87.5203 193.64 87.6632L194.462 87.9102C196.158 88.4257 197.341 89.0588 198.01 89.8093C198.699 90.5431 199.005 91.4577 198.928 92.553Z" fill="black"/>
<path d="M185.036 95.3327C184.835 95.3337 184.534 95.3265 184.135 95.3109C183.75 95.3162 183.363 95.2844 182.973 95.2156C182.583 95.1469 182.233 95.0578 181.923 94.9483C181.631 94.842 181.393 94.6903 181.209 94.4933C181.024 94.2962 180.893 94.0538 180.816 93.7661C180.76 93.4637 180.77 93.0909 180.849 92.6477L183.568 77.2257C183.769 77.2246 184.061 77.2303 184.442 77.2427C184.845 77.2406 185.241 77.2739 185.631 77.3427C186.021 77.4114 186.362 77.499 186.654 77.6053C186.964 77.7147 187.211 77.868 187.395 78.065C187.58 78.2621 187.7 78.5118 187.757 78.8142C187.834 79.1019 187.833 79.4674 187.755 79.9106L185.036 95.3327Z" fill="black"/>
<path d="M175.685 76.2974C175.792 75.6219 176.104 75.0882 176.622 74.6963C177.158 74.3073 177.799 74.1719 178.545 74.2902C179.292 74.4084 179.851 74.7339 180.222 75.2665C180.611 75.802 180.752 76.4075 180.645 77.0831C180.538 77.7586 180.217 78.2909 179.682 78.68C179.164 79.0718 178.532 79.2086 177.785 79.0903C177.038 78.9721 176.471 78.6452 176.082 78.1098C175.71 77.5771 175.578 76.973 175.685 76.2974ZM177.813 93.5832C177.612 93.5878 177.312 93.5857 176.912 93.5771C176.528 93.5891 176.14 93.5641 175.749 93.5022C175.357 93.4402 175.006 93.3572 174.694 93.2532C174.401 93.152 174.16 93.0045 173.972 92.8107C173.784 92.6169 173.649 92.3768 173.566 92.0905C173.505 91.7891 173.509 91.4162 173.58 90.9717L175.299 80.118C175.5 80.1134 175.791 80.1141 176.173 80.1199C176.576 80.1107 176.972 80.1371 177.363 80.199C177.755 80.261 178.097 80.3425 178.391 80.4438C178.702 80.5478 178.952 80.6967 179.14 80.8905C179.328 81.0843 179.453 81.3318 179.515 81.6332C179.597 81.9196 179.603 82.285 179.532 82.7295L177.813 93.5832Z" fill="black"/>
<path d="M51.1468 102.177C44.9069 105.402 40.7186 111.488 39.9334 115.706C37.0148 131.383 51.7652 131.492 54.1315 129.659C57.1135 127.349 53.4319 119.135 54.1315 115.706C54.9356 111.763 57.5946 109.188 62.1082 107.978C72.964 111.152 82.4519 112.146 90.572 110.96C102.752 109.182 113.48 98.1337 139.926 98.1337C155.053 97.469 168.027 105.753 179.839 107.31C191.65 108.867 201.316 105.434 201.316 105.434" stroke="black" stroke-width="2.4" stroke-linecap="round"/>
<path d="M235.388 41.6409C247.815 49.1005 232.125 53.4697 231.55 53.4697C230.975 53.4697 237.967 54.7324 237.018 60.853C236.386 64.9334 230.721 67.0506 220.021 67.2047" stroke="black" stroke-width="2.4" stroke-linecap="round"/>
<path d="M235.388 41.6409C238.085 38.8627 239.433 36.0916 239.433 33.3276C239.433 29.1817 236.48 18.3733 231.704 11.0096" stroke="black" stroke-width="2.4" stroke-linecap="round"/>
<path d="M220.021 67.2047C222.374 71.4681 227.499 79.602 227.499 87.2981C227.499 93.7512 223.716 99.8427 221.157 104.368" stroke="black" stroke-width="2.32275" stroke-linecap="round"/>
<path d="M221.157 104.368C228.086 107.767 231.55 110.292 231.55 111.944C232.038 115.208 231.367 118.383 229.538 121.47C229.151 122.122 228.713 122.77 228.223 123.415C225.414 127.108 222.68 129.442 220.021 130.415C217.893 131.182 215.984 131.182 214.296 130.415C211.764 129.265 211.499 126.434 214.296 119.017C206.741 116.086 202.5 112.797 201.573 109.15C200.647 105.502 202.04 100.859 205.751 95.219" stroke="black" stroke-width="2.4" stroke-linecap="round"/>
<path d="M46.5718 105.363C35.5222 103.383 29.0488 96.7754 27.1515 85.5416C10.7501 73.317 6.00105 55.8863 12.9044 33.2496C15.0275 21.4858 23.4459 22.017 29.3511 32.7728C34.2199 41.6409 46.388 47.0957 48.4433 48.4976C52.0426 50.9528 59.137 54.4228 59.9944 66.0828C66.9675 70.7377 75.8583 73.0651 86.6667 73.0651C102.879 73.0651 118.208 56.6761 144.654 56.6761C169.299 56.6761 176.097 67.2047 191.787 67.2047C207.477 67.2047 223.76 56.6761 231.55 11.0096" stroke="black" stroke-width="2.4" stroke-linecap="round"/>
<path d="M49.2294 63.0012C37.0324 68.3715 31.8127 82.4133 32.7272 85.5416C33.2407 87.2981 42.001 96.4009 48.4432 92.1952C55.2379 87.7594 59.0882 78.8124 59.9944 65.3541V66.0828" stroke="black" stroke-width="2.4" stroke-linecap="round"/>
<path d="M13.3363 31.9427C19.5651 32.3732 23.9937 31.1574 26.6221 28.2951" stroke="black" stroke-width="2.4"/>
<path d="M16.2826 56.6761C17.3765 60.4704 20.1234 61.8839 24.5233 60.9165" stroke="black" stroke-width="2.4" stroke-linecap="round"/>
<path d="M37.5177 55.8286C38.7025 55.3604 39.4142 54.3516 39.1075 53.5753C38.8007 52.7991 37.5916 52.5493 36.4068 53.0175C35.2221 53.4857 34.5103 54.4946 34.8171 55.2708C35.1239 56.0471 36.333 56.2968 37.5177 55.8286Z" fill="black"/>
<path d="M35.3725 100.966C31.9676 104.69 28.3512 109.241 24.5233 114.618C22.3263 117.704 15.6963 117.906 15.6963 107.978C15.6963 100.966 19.9792 98.8252 29.3511 93.3815" stroke="black" stroke-width="2.4"/>
<path d="M218.696 123.415C217.849 125.021 217.496 127.103 217.637 129.659" stroke="black" stroke-width="2.4" stroke-linecap="round"/>
<path d="M14.708 32.5064C13.2228 28.9875 17.2163 24.5833 18.6699 25.2374C18.6699 25.2374 24.8305 26.4302 25.6692 29.6583L14.708 32.5064Z" fill="black"/>
</svg>
