<svg id="ez0yUN8MhJ31" xmlns="http://www.w3.org/2000/svg" xmlns:xlink="http://www.w3.org/1999/xlink" viewBox="0 0 250 140" shape-rendering="geometricPrecision" text-rendering="geometricPrecision" project-id="5e6a18b96a6244a0a25d532052257b94" export-id="c9700f3075eb48dbbaba0257b3d064b6" cached="false"><g transform="translate(-5.34613 -77.9349)"><g><path d="" fill="none" stroke="#3f5787" stroke-width="2.4"/><path d="M56.365326,145.008636c-6.239903,3.224781-10.428189,9.311063-11.213355,13.528613-2.918628,15.677522,11.831793,15.786785,14.198018,13.953706c2.982016-2.310123-.699537-10.52433,0-13.953706q1.206268-5.913551,7.976763-7.727304q16.283696,4.760232,28.463734,2.982124c12.180038-1.778108,22.908284-12.826728,49.354431-12.826727c15.127028-.664697,28.100819,7.61973,39.912399,9.176343s21.477045-1.875621,21.477045-1.875621" transform="translate(0.127596 34.1033)" fill="none" stroke="#cae7f7" stroke-width="2.4" stroke-linecap="round"/><path d="" fill="none" stroke="#3f5787" stroke-width="2.4"/><path d="M240.734435,118.575847c12.426907,7.459549-3.263612,11.828809-3.838401,11.828809s6.416835,1.262624,5.468574,7.383216q-.948261,6.120592-16.997031,6.351738" transform="translate(0 0.000001)" fill="none" stroke="#cae7f7" stroke-width="2.4" stroke-linecap="round"/><path d="M240.734435,118.052462q4.044602-4.167342,4.044602-8.313298c0-4.145955-2.953243-14.9543-7.729049-22.318068" transform="translate(0 0.130993)" fill="none" stroke="#cae7f7" stroke-width="2.4" stroke-linecap="round"/><path d="M229.745408,150.501501c2.511351,4.263421,7.983452,12.397337,7.983452,20.093449c0,6.453043-4.038906,12.54453-6.771326,17.070345" transform="matrix(0.936664 0 0 1 10.1733 -6.36189)" fill="none" stroke="#cae7f7" stroke-width="2.4" stroke-linecap="round"/><path d="" fill="none" stroke="#3f5787" stroke-width="2.4"/><path d="" fill="none" stroke="#3f5787" stroke-width="2.4"/><path d="" fill="none" stroke="#3f5787" stroke-width="2.4"/><path d="" fill="none" stroke="#3f5787" stroke-width="2.4"/><path d="" fill="none" stroke="#3f5787" stroke-width="2.4"/><path d="M226.502932,181.303403q10.393102,5.098177,10.393102,7.575337c.488058,3.264065-.182702,6.439487-2.012279,9.526264-.386519.652116-.824757,1.300276-1.314714,1.944479q-4.213742,5.540291-8.201464,7.000747-3.193384,1.15025-5.725347,0c-2.531963-1.15025-2.797405-3.981635,0-11.397964q-11.333231-4.396512-12.722698-9.867727t4.17732-13.930601" transform="translate(0 0.000001)" fill="none" stroke="#cae7f7" stroke-width="2.4" stroke-linecap="round"/><path d="" fill="none" stroke="#3f5787" stroke-width="2.4"/><path d="M51.917911,182.297951q-16.574337-2.970727-19.42025-19.821479-24.602142-18.336863-14.247147-52.29197c2.123107-11.763807,10.541503-11.232574,16.44669-.476835c4.868866,8.868179,17.036912,14.322918,19.092178,15.724874c3.599303,2.455187,10.693749,5.925187,11.551122,17.585198q10.459735,6.982259,26.672324,6.982259c16.212589,0,31.541025-16.388984,57.987172-16.388983c24.644735.000001,31.443563,10.528594,47.133165,10.528594s31.973318-10.528593,39.762869-56.195129" transform="translate(0 0.000002)" fill="none" stroke="#cae7f7" stroke-width="2.4" stroke-linecap="round"/><path d="" fill="none" stroke="#3f5787" stroke-width="2.4"/><path d="" fill="none" stroke="#3f5787" stroke-width="2.4"/><path d="" fill="none" stroke="#3f5787" stroke-width="2.4"/><path d="M54.575491,139.936135c-12.19693,5.370291-17.416632,19.412047-16.502132,22.540335.513507,1.756586,9.27373,10.859342,15.716023,6.653611q10.191928-6.653611,11.551122-26.841043v.728703-.000001-.000001-.000001" transform="translate(0 0.000004)" fill="none" stroke="#cae7f7" stroke-width="2.4" stroke-linecap="round"/><path d="" fill="none" stroke="#3f5787" stroke-width="2.4"/><path d="M18.682469,108.877582q9.343155.645867,13.285753-3.647603" transform="translate(0 0.000001)" fill="none" stroke="#cae7f7" stroke-width="2.4"/><path d="M23.63391,135.140915q1.640852,5.691447,8.240645,4.240388" transform="translate(-2.00513 -1.5299)" fill="none" stroke="#cae7f7" stroke-width="2.4" stroke-linecap="round"/><path d="" fill="none" stroke="#3f5787" stroke-width="2.4"/><ellipse rx="2.37673" ry="1.21379" transform="matrix(0.902576 -0.35669 0.457618 1.15797 42.3084 131.358)" fill="#cae7f7" stroke-width="2.4"/><path d="M40.718655,177.901137q-5.107393,5.58569-10.849229,13.651713c-2.19695,3.086234-8.827015,3.288153-8.827015-6.639639c0-7.012074,4.282936-9.153135,13.654792-14.596802" transform="translate(0.000001 0.000002)" fill="none" stroke="#cae7f7" stroke-width="2.4"/><path d="M224.042479,200.349484q-1.271204,2.410288-1.059337,6.244771" fill="none" stroke="#cae7f7" stroke-width="2.4" stroke-linecap="round"/><path d="M34,20.6c20.0261-3.121829,37.291497,24.979503,32,32c6.216289,11.284089-9.754019,40.30088-32,32v-64Z" transform="matrix(-0.04746 -0.182655 0.17127 -0.044502 18.1396 116.568)" fill="#cae7f7"/></g></g></svg>
